<?xml version="1.0" encoding="utf-8"?>
<!-- Generator: Adobe Illustrator 27.5.0, SVG Export Plug-In . SVG Version: 6.00 Build 0)  -->
<svg version="1.1" id="Layer_shiba" shape-rendering="crispEdges"
	 xmlns="http://www.w3.org/2000/svg" xmlns:xlink="http://www.w3.org/1999/xlink" x="0px" y="0px" viewBox="0 0 25 25"
	 style="enable-background:new 0 0 25 25;" xml:space="preserve">
<style type="text/css">
	.stShiba0{fill:#181425;}
	.stShiba1{fill:#B30F0B;}
	.stShiba2{fill:#FFB91A;}
	.stShiba3{fill:#F00500;}
	.stShiba4{fill:#FFA409;}
	.stShiba5{fill:#FF7A00;}
	.stShiba6{fill:#F58D14;}
	.stShiba7{fill:#FFA009;}
	.stShiba8{fill:#FFFFFF;}
	.stShiba9{fill:#000918;}
	.stShiba10{fill:#000019;}
	.stShiba11{fill:#181818;}
	.stShiba12{fill:#FF5C4E;}
	.stShiba13{fill:#FF8900;}
	.stShiba14{fill:#111111;}
</style>
<g>
	<polygon class="stShiba0" points="10,4 11,4 12,4 13,4 14,4 15,4 16,4 17,4 17,3 16,3 15,3 14,3 13,3 12,3 11,3 10,3 9,3 8,3 8,4 9,4 	
		"/>
	<rect x="7" y="4" class="stShiba0" width="1" height="1"/>
	<rect x="8" y="4" class="stShiba1" width="1" height="1"/>
	<rect x="17" y="4" class="stShiba0" width="1" height="1"/>
	<rect x="6" y="5" class="stShiba0" width="1" height="1"/>
	<rect x="7" y="5" class="stShiba1" width="1" height="1"/>
	<rect x="15" y="5" class="stShiba1" width="1" height="1"/>
	<rect x="18" y="5" class="stShiba0" width="1" height="1"/>
	<rect x="5" y="6" class="stShiba0" width="1" height="1"/>
	<rect x="6" y="6" class="stShiba1" width="1" height="1"/>
	<rect x="16" y="6" class="stShiba1" width="1" height="1"/>
	<rect x="19" y="6" class="stShiba0" width="1" height="1"/>
	<rect x="4" y="7" class="stShiba0" width="1" height="1"/>
	<rect x="5" y="7" class="stShiba1" width="1" height="1"/>
	<rect x="8" y="7" class="stShiba2" width="1" height="1"/>
	<polygon class="stShiba3" points="10,8 10,9 11,9 12,9 13,9 14,9 15,9 15,8 16,8 16,7 16,6 15,6 15,5 14,5 13,5 12,5 11,5 10,5 10,6 
		9,6 9,7 9,8 	"/>
	<rect x="16" y="7" class="stShiba2" width="1" height="1"/>
	<rect x="20" y="7" class="stShiba0" width="1" height="1"/>
	<polygon class="stShiba4" points="7,9 7,10 8,10 8,9 8,8 8,7 7,7 7,8 	"/>
	<polygon class="stShiba4" points="17,9 17,10 18,10 18,9 18,8 18,7 17,7 17,8 	"/>
	<rect x="18" y="8" class="stShiba1" width="1" height="1"/>
	<polygon class="stShiba0" points="21,8 21,9 21,10 21,11 21,12 21,13 21,14 21,15 21,16 21,17 22,17 22,16 22,15 22,14 22,13 22,12 
		22,11 22,10 22,9 22,8 	"/>
	<polygon class="stShiba5" points="9,9 9,8 8,8 8,9 8,10 9,10 	"/>
	<polygon class="stShiba2" points="9,10 10,10 10,9 10,8 9,8 9,9 	"/>
	<polygon class="stShiba6" points="11,10 12,10 13,10 14,10 15,10 15,9 14,9 13,9 12,9 11,9 10,9 10,10 	"/>
	<polygon class="stShiba2" points="16,10 16,9 16,8 15,8 15,9 15,10 	"/>
	<polygon class="stShiba5" points="16,10 17,10 17,9 17,8 16,8 16,9 	"/>
	<polygon class="stShiba3" points="18,10 17,10 17,11 17,12 17,13 18,13 18,14 18,15 18,16 19,16 19,15 19,14 19,13 19,12 19,11 19,10 
		19,9 18,9 	"/>
	<path class="stShiba4" d="M9,11h1h1v1h-1H9H8v1H7v1h1h1v-1h1h1v1h1v1h1v-1h1v-1h1h1h1v-1v-1v-1h-1h-1h-1h-1h-1h-1h-1H9H8v1H9z M15,11h1
		v1h-1h-1v-1H15z"/>
	<polygon class="stShiba1" points="19,11 19,12 19,13 19,14 19,15 19,16 20,16 20,15 20,14 20,13 20,12 20,11 20,10 20,9 19,9 19,10 	"/>
	<rect x="8" y="11" class="stShiba7" width="1" height="1"/>
	<polygon class="stShiba8" points="10,12 11,12 11,11 10,11 9,11 9,12 	"/>
	<polygon class="stShiba8" points="15,12 16,12 16,11 15,11 14,11 14,12 	"/>
	<rect x="9" y="13" class="stShiba9" width="1" height="1"/>
	<rect x="15" y="13" class="stShiba9" width="1" height="1"/>
	<polygon class="stShiba7" points="16,14 16,15 17,15 18,15 18,14 17,14 17,13 16,13 	"/>
	<rect x="17" y="13" class="stShiba4" width="1" height="1"/>
	<polygon class="stShiba3" points="7,14 7,13 8,13 8,12 8,11 8,10 7,10 7,9 6,9 6,10 6,11 6,12 6,13 6,14 6,15 6,16 7,16 7,15 	"/>
	<polygon class="stShiba7" points="9,14 8,14 7,14 7,15 8,15 9,15 	"/>
	<polygon class="stShiba4" points="10,14 9,14 9,15 8,15 8,16 9,16 10,16 10,15 	"/>
	<polygon class="stShiba10" points="11,14 11,13 10,13 10,14 10,15 11,15 12,15 12,14 	"/>
	<polygon class="stShiba10" points="15,14 15,13 14,13 14,14 13,14 13,15 14,15 15,15 	"/>
	<polygon class="stShiba0" points="4,15 4,14 4,13 4,12 4,11 4,10 4,9 4,8 3,8 3,9 3,10 3,11 3,12 3,13 3,14 3,15 3,16 3,17 4,17 4,16 	
		"/>
	<rect x="7" y="15" class="stShiba8" width="1" height="1"/>
	<rect x="10" y="15" class="stShiba7" width="1" height="1"/>
	<rect x="12" y="15" class="stShiba11" width="1" height="1"/>
	<rect x="14" y="15" class="stShiba7" width="1" height="1"/>
	<polygon class="stShiba4" points="16,15 16,14 15,14 15,15 15,16 16,16 17,16 17,15 	"/>
	<rect x="17" y="15" class="stShiba8" width="1" height="1"/>
	<polygon class="stShiba12" points="21,15 21,14 21,13 21,12 21,11 21,10 21,9 21,8 20,8 20,7 19,7 19,6 18,6 18,5 17,5 17,4 16,4 15,4 
		14,4 13,4 12,4 11,4 10,4 9,4 9,5 8,5 8,6 7,6 7,7 8,7 9,7 9,6 10,6 10,5 11,5 12,5 13,5 14,5 15,5 16,5 16,6 17,6 17,7 18,7 18,8 
		19,8 19,9 20,9 20,10 20,11 20,12 20,13 20,14 20,15 20,16 19,16 19,17 18,17 18,18 17,18 17,19 16,19 16,20 15,20 14,20 13,20 
		12,20 11,20 10,20 10,19 9,19 9,18 8,18 8,17 7,17 7,16 6,16 6,15 6,14 6,13 6,12 6,11 6,10 6,9 7,9 7,8 7,7 6,7 6,8 5,8 5,9 5,10 
		5,11 5,12 5,13 5,14 5,15 5,16 5,17 6,17 6,18 7,18 7,19 8,19 8,20 9,20 9,21 10,21 11,21 12,21 13,21 14,21 15,21 16,21 17,21 
		17,20 18,20 18,19 19,19 19,18 20,18 20,17 21,17 21,16 	"/>
	<polygon class="stShiba1" points="5,16 5,15 5,14 5,13 5,12 5,11 5,10 5,9 5,8 4,8 4,9 4,10 4,11 4,12 4,13 4,14 4,15 4,16 4,17 5,17 	
		"/>
	<rect x="7" y="16" class="stShiba3" width="1" height="1"/>
	<rect x="8" y="16" class="stShiba8" width="1" height="1"/>
	<rect x="9" y="16" class="stShiba13" width="1" height="1"/>
	<rect x="15" y="16" class="stShiba13" width="1" height="1"/>
	<rect x="16" y="16" class="stShiba8" width="1" height="1"/>
	<rect x="17" y="16" class="stShiba3" width="1" height="1"/>
	<rect x="18" y="16" class="stShiba1" width="1" height="1"/>
	<rect x="4" y="17" class="stShiba0" width="1" height="1"/>
	<rect x="5" y="17" class="stShiba1" width="1" height="1"/>
	<rect x="8" y="17" class="stShiba3" width="1" height="1"/>
	<polygon class="stShiba8" points="11,18 11,17 12,17 13,17 14,17 14,18 15,18 16,18 16,17 15,17 15,16 14,16 14,15 13,15 13,16 12,16 
		12,15 11,15 11,16 10,16 10,17 9,17 9,18 10,18 	"/>
	<rect x="11" y="17" class="stShiba14" width="1" height="1"/>
	<rect x="12" y="17" class="stShiba11" width="1" height="1"/>
	<rect x="13" y="17" class="stShiba14" width="1" height="1"/>
	<rect x="16" y="17" class="stShiba3" width="1" height="1"/>
	<rect x="17" y="17" class="stShiba1" width="1" height="1"/>
	<rect x="20" y="17" class="stShiba0" width="1" height="1"/>
	<rect x="5" y="18" class="stShiba0" width="1" height="1"/>
	<rect x="6" y="18" class="stShiba1" width="1" height="1"/>
	<polygon class="stShiba8" points="12,18 11,18 11,19 12,19 13,19 14,19 14,18 13,18 	"/>
	<polygon class="stShiba3" points="15,18 14,18 14,19 13,19 12,19 11,19 11,18 10,18 9,18 9,19 10,19 10,20 11,20 12,20 13,20 14,20 
		15,20 15,19 16,19 16,18 	"/>
	<rect x="16" y="18" class="stShiba1" width="1" height="1"/>
	<rect x="19" y="18" class="stShiba0" width="1" height="1"/>
	<rect x="6" y="19" class="stShiba0" width="1" height="1"/>
	<rect x="7" y="19" class="stShiba1" width="1" height="1"/>
	<rect x="15" y="19" class="stShiba1" width="1" height="1"/>
	<rect x="18" y="19" class="stShiba0" width="1" height="1"/>
	<rect x="7" y="20" class="stShiba0" width="1" height="1"/>
	<rect x="8" y="20" class="stShiba1" width="1" height="1"/>
	<rect x="17" y="20" class="stShiba0" width="1" height="1"/>
	<polygon class="stShiba0" points="15,21 14,21 13,21 12,21 11,21 10,21 9,21 8,21 8,22 9,22 10,22 11,22 12,22 13,22 14,22 15,22 16,22 
		17,22 17,21 16,21 	"/>
</g>
</svg>
