<?xml version="1.0" encoding="utf-8"?>
<!-- Generator: Adobe Illustrator 27.5.0, SVG Export Plug-In . SVG Version: 6.00 Build 0)  -->
<svg version="1.1" id="Layer_doge" shape-rendering="crispEdges"
	 xmlns="http://www.w3.org/2000/svg" xmlns:xlink="http://www.w3.org/1999/xlink" x="0px" y="0px" viewBox="0 0 25 25"
	 style="enable-background:new 0 0 25 25;" xml:space="preserve">
<style type="text/css">
	.stDoge0{fill:#181425;}
	.stDoge1{fill:#7A6A2A;}
	.stDoge2{fill:#4E4215;}
	.stDoge3{fill:#F8EFE0;}
	.stDoge4{fill:#D9D6CD;}
	.stDoge5{fill:#F0EAD3;}
	.stDoge6{fill:#E2B76D;}
	.stDoge7{fill:#B9822C;}
	.stDoge8{fill:#F0E4D2;}
	.stDoge9{fill:#BA9F33;}
	.stDoge10{fill:#E29B37;}
	.stDoge11{fill:#F8E9D4;}
	.stDoge12{fill:#E2D7AB;}
	.stDoge13{fill:#988430;}
	.stDoge14{fill:#BCB184;}
	.stDoge15{fill:#F0EEE4;}
</style>
<g>
	<path class="stDoge0" d="M10,4c2.3,0,4.7,0,7,0V3c-3,0-6,0-9,0v1C8.5,4,9.5,4,10,4z"/>
	<rect x="7" y="4" class="stDoge0" width="1" height="1"/>
	<rect x="8" y="4" class="stDoge1" width="1" height="1"/>
	<rect x="17" y="4" class="stDoge0" width="1" height="1"/>
	<rect x="6" y="5" class="stDoge0" width="1" height="1"/>
	<rect x="7" y="5" class="stDoge1" width="1" height="1"/>
	<rect x="15" y="5" class="stDoge1" width="1" height="1"/>
	<rect x="18" y="5" class="stDoge0" width="1" height="1"/>
	<rect x="5" y="6" class="stDoge0" width="1" height="1"/>
	<rect x="6" y="6" class="stDoge1" width="1" height="1"/>
	<rect x="16" y="6" class="stDoge1" width="1" height="1"/>
	<rect x="19" y="6" class="stDoge0" width="1" height="1"/>
	<rect x="4" y="7" class="stDoge0" width="1" height="1"/>
	<rect x="5" y="7" class="stDoge1" width="1" height="1"/>
	<path class="stDoge2" d="M10,8V7C9.5,7,8.5,7,8,7v1C8.5,8,9.5,8,10,8z"/>
	<path class="stDoge2" d="M14,8h1V7c-0.9,0-2.1,0-3,0v1C12.5,8,13.5,8,14,8z"/>
	<rect x="17" y="7" class="stDoge1" width="1" height="1"/>
	<rect x="20" y="7" class="stDoge0" width="1" height="1"/>
	<rect x="9" y="8" class="stDoge3" width="1" height="1"/>
	<rect x="10" y="8" class="stDoge4" width="1" height="1"/>
	<rect x="11" y="8" class="stDoge5" width="1" height="1"/>
	<rect x="12" y="8" class="stDoge4" width="1" height="1"/>
	<path class="stDoge3" d="M13,8v1c0.5,0,1.5,0,2,0V8C14.5,8,13.5,8,13,8z"/>
	<rect x="15" y="8" class="stDoge2" width="1" height="1"/>
	<rect x="18" y="8" class="stDoge1" width="1" height="1"/>
	<path class="stDoge0" d="M21,8c0,3,0,6,0,9h1c0-3,0-6,0-9H21z"/>
	<path class="stDoge6" d="M8,10h1c0-0.5,0-1.5,0-2H8C8,8.5,8,9.5,8,10z"/>
	<rect x="9" y="9" class="stDoge7" width="1" height="1"/>
	<rect x="10" y="9" class="stDoge3" width="1" height="1"/>
	<rect x="11" y="9" class="stDoge4" width="1" height="1"/>
	<rect x="12" y="9" class="stDoge2" width="1" height="1"/>
	<rect x="13" y="9" class="stDoge6" width="1" height="1"/>
	<rect x="14" y="9" class="stDoge8" width="1" height="1"/>
	<path class="stDoge3" d="M15,10v1h1c0-0.5,0-1.5,0-2h-1V10z"/>
	<rect x="16" y="9" class="stDoge2" width="1" height="1"/>
	<path class="stDoge9" d="M7,10V9H6c0,0.5,0,1.5,0,2h1V10z"/>
	<path class="stDoge2" d="M7,11h1c0-0.9,0-2.1,0-3H7C7,8.9,7,10.1,7,11z"/>
	<path class="stDoge10" d="M10,11v-1c-0.5,0-1.5,0-2,0v1C8.5,11,9.5,11,10,11z"/>
	<path class="stDoge10" d="M13,11h1v-1c-0.5,0-1.5,0-2,0v1H13z"/>
	<rect x="14" y="10" class="stDoge11" width="1" height="1"/>
	<path class="stDoge4" d="M16,11v1h1c0-0.5,0-1.5,0-2h-1V11z"/>
	<rect x="8" y="11" class="stDoge12" width="1" height="1"/>
	<rect x="9" y="11" class="stDoge2" width="1" height="1"/>
	<rect x="12" y="11" class="stDoge12" width="1" height="1"/>
	<rect x="13" y="11" class="stDoge2" width="1" height="1"/>
	<path class="stDoge10" d="M14,12c-0.5,0-1.5,0-2,0c0,0.5,0,1.5,0,2c0.9,0,2.1,0,3,0c0-0.9,0-2.1,0-3h-1V12z"/>
	<path class="stDoge11" d="M16,11h-1c0,0.9,0,2.1,0,3h1v1h1c0-0.9,0-2.1,0-3h-1V11z"/>
	<path class="stDoge10" d="M9,13h1v-1c-0.5,0-1.5,0-2,0v-1H7c0,0.9,0,2.1,0,3h1v-1H9z"/>
	<path class="stDoge2" d="M10,14v-1c-0.5,0-1.5,0-2,0c0,0.5,0,1.5,0,2h1v-1H10z"/>
	<path class="stDoge2" d="M17,14c0,0.5,0,1.5,0,2h1c0-1.3,0-2.7,0-4h-1C17,12.5,17,13.5,17,14z"/>
	<path class="stDoge2" d="M7,14c0-0.9,0-2.1,0-3H6c0,1.6,0,3.4,0,5h1C7,15.5,7,14.5,7,14z"/>
	<rect x="9" y="14" class="stDoge10" width="1" height="1"/>
	<path class="stDoge11" d="M11,14h1c0-1.3,0-2.7,0-4c-0.5,0-1.5,0-2,0c0,1.6,0,3.4,0,5h1V14z"/>
	<rect x="11" y="14" class="stDoge3" width="1" height="1"/>
	<path class="stDoge6" d="M14,14c-0.5,0-1.5,0-2,0c0,0.5,0,1.5,0,2c0.5,0,1.5,0,2,0C14,15.5,14,14.5,14,14z"/>
	<path class="stDoge3" d="M14,15v1c0.5,0,1.5,0,2,0c0-0.5,0-1.5,0-2c-0.5,0-1.5,0-2,0V15z"/>
	<path class="stDoge9" d="M19,14c0-1.6,0-3.4,0-5h-1V8h-1V7h-1V6h-1V5c-1.6,0-3.4,0-5,0v1H9v1h1v1c0.5,0,1.5,0,2,0V7c0.9,0,2.1,0,3,0v1
		h1v1h1c0,0.9,0,2.1,0,3h1c0,1.3,0,2.7,0,4h1C19,15.5,19,14.5,19,14z"/>
	<path class="stDoge1" d="M20,14c0-1.6,0-3.4,0-5h-1c0,2.3,0,4.7,0,7h1C20,15.5,20,14.5,20,14z"/>
	<path class="stDoge0" d="M4,15c0-2.3,0-4.7,0-7H3c0,3,0,6,0,9h1C4,16.5,4,15.5,4,15z"/>
	<path class="stDoge6" d="M9,16v-1H8v-1H7c0,0.5,0,1.5,0,2C7.5,16,8.5,16,9,16z"/>
	<rect x="9" y="15" class="stDoge2" width="1" height="1"/>
	<path class="stDoge4" d="M11,15h-1v1c0.5,0,1.5,0,2,0v-1H11z"/>
	<rect x="16" y="15" class="stDoge7" width="1" height="1"/>
	<path class="stDoge13" d="M21,15c0-2.3,0-4.7,0-7h-1V7h-1V6h-1V5h-1V4c-2.6,0-5.4,0-8,0v1H8v1H7v1H6v1H5c0,3,0,6,0,9h1v1h1v1h1v1h1v1
		c2.6,0,5.4,0,8,0v-1h1v-1h1v-1h1v-1h1C21,16.5,21,15.5,21,15z M19,16v1h-1v1h-1v1h-1v1c-1.9,0-4.1,0-6,0v-1H9v-1H8v-1H7v-1H6
		c0-2.3,0-4.7,0-7h1V8h1V7h1V6h1V5c1.9,0,4.1,0,6,0v1h1v1h1v1h1v1h1c0,2.3,0,4.7,0,7H19z"/>
	<path class="stDoge1" d="M5,16c0-2.6,0-5.4,0-8H4c0,3,0,6,0,9h1V16z"/>
	<rect x="7" y="16" class="stDoge2" width="1" height="1"/>
	<rect x="8" y="16" class="stDoge14" width="1" height="1"/>
	<path class="stDoge3" d="M13,16c-1.3,0-2.7,0-4,0v1c1.6,0,3.4,0,5,0v-1H13z"/>
	<rect x="14" y="16" class="stDoge15" width="1" height="1"/>
	<rect x="15" y="16" class="stDoge14" width="1" height="1"/>
	<rect x="16" y="16" class="stDoge2" width="1" height="1"/>
	<rect x="17" y="16" class="stDoge9" width="1" height="1"/>
	<rect x="18" y="16" class="stDoge1" width="1" height="1"/>
	<rect x="4" y="17" class="stDoge0" width="1" height="1"/>
	<rect x="5" y="17" class="stDoge1" width="1" height="1"/>
	<rect x="8" y="17" class="stDoge2" width="1" height="1"/>
	<path class="stDoge14" d="M11,18c1.3,0,2.7,0,4,0v-1c-1.9,0-4.1,0-6,0v1C9.5,18,10.5,18,11,18z"/>
	<rect x="15" y="17" class="stDoge2" width="1" height="1"/>
	<rect x="16" y="17" class="stDoge9" width="1" height="1"/>
	<rect x="17" y="17" class="stDoge1" width="1" height="1"/>
	<rect x="20" y="17" class="stDoge0" width="1" height="1"/>
	<rect x="5" y="18" class="stDoge0" width="1" height="1"/>
	<rect x="6" y="18" class="stDoge1" width="1" height="1"/>
	<path class="stDoge2" d="M12,19c0.9,0,2.1,0,3,0v-1c-1.9,0-4.1,0-6,0v1C9.9,19,11.1,19,12,19z"/>
	<rect x="15" y="18" class="stDoge9" width="1" height="1"/>
	<rect x="16" y="18" class="stDoge1" width="1" height="1"/>
	<rect x="19" y="18" class="stDoge0" width="1" height="1"/>
	<rect x="6" y="19" class="stDoge0" width="1" height="1"/>
	<rect x="7" y="19" class="stDoge1" width="1" height="1"/>
	<path class="stDoge9" d="M14,19c-1.3,0-2.7,0-4,0v1c1.6,0,3.4,0,5,0v-1H14z"/>
	<rect x="15" y="19" class="stDoge1" width="1" height="1"/>
	<rect x="18" y="19" class="stDoge0" width="1" height="1"/>
	<rect x="7" y="20" class="stDoge0" width="1" height="1"/>
	<rect x="8" y="20" class="stDoge1" width="1" height="1"/>
	<rect x="17" y="20" class="stDoge0" width="1" height="1"/>
	<path class="stDoge0" d="M15,21c-2.3,0-4.7,0-7,0v1c3,0,6,0,9,0v-1C16.5,21,15.5,21,15,21z"/>
</g>
</svg>
