<?xml version="1.0" encoding="utf-8"?>
<!-- Generator: Adobe Illustrator 27.5.0, SVG Export Plug-In . SVG Version: 6.00 Build 0)  -->
<svg version="1.1" id="Layer_btc" shape-rendering="crispEdges"
	 xmlns="http://www.w3.org/2000/svg" xmlns:xlink="http://www.w3.org/1999/xlink" x="0px" y="0px" viewBox="0 0 25 25"
	 style="enable-background:new 0 0 25 25;" xml:space="preserve">
<style type="text/css">
	.stBtc0{fill:#181425;}
	.stBtc1{fill:#B05E15;}
	.stBtc2{fill:#E49F23;}
	.stBtc3{fill:#FFFFFF;}
	.stBtc4{fill:#FFD04D;}
</style>
<g>
	<path class="stBtc0" d="M10,4c2.3,0,4.7,0,7,0V3c-3,0-6,0-9,0v1C8.5,4,9.5,4,10,4z"/>
	<rect x="7" y="4" class="stBtc0" width="1" height="1"/>
	<rect x="8" y="4" class="stBtc1" width="1" height="1"/>
	<rect x="17" y="4" class="stBtc0" width="1" height="1"/>
	<rect x="6" y="5" class="stBtc0" width="1" height="1"/>
	<rect x="7" y="5" class="stBtc1" width="1" height="1"/>
	<rect x="15" y="5" class="stBtc1" width="1" height="1"/>
	<rect x="18" y="5" class="stBtc0" width="1" height="1"/>
	<rect x="5" y="6" class="stBtc0" width="1" height="1"/>
	<rect x="6" y="6" class="stBtc1" width="1" height="1"/>
	<rect x="16" y="6" class="stBtc1" width="1" height="1"/>
	<rect x="19" y="6" class="stBtc0" width="1" height="1"/>
	<rect x="4" y="7" class="stBtc0" width="1" height="1"/>
	<rect x="5" y="7" class="stBtc1" width="1" height="1"/>
	<rect x="17" y="7" class="stBtc1" width="1" height="1"/>
	<rect x="20" y="7" class="stBtc0" width="1" height="1"/>
	<rect x="18" y="8" class="stBtc1" width="1" height="1"/>
	<path class="stBtc0" d="M21,8c0,3,0,6,0,9h1c0-3,0-6,0-9H21z"/>
	<path class="stBtc2" d="M13,10c-0.5,0-1.5,0-2,0c0,0.5,0,1.5,0,2c1.3,0,2.7,0,4,0c0-0.5,0-1.5,0-2C14.5,10,13.5,10,13,10z"/>
	<path class="stBtc3" d="M15,12h1c0-0.5,0-1.5,0-2h-1C15,10.5,15,11.5,15,12z"/>
	<path class="stBtc2" d="M15,13c-1.3,0-2.7,0-4,0c0,0.5,0,1.5,0,2c1.3,0,2.7,0,4,0C15,14.5,15,13.5,15,13z"/>
	<path class="stBtc3" d="M16,13h-1c0,0.5,0,1.5,0,2h1C16,14.5,16,13.5,16,13z"/>
	<path class="stBtc2" d="M19,14c0-1.6,0-3.4,0-5h-1V8h-1V7h-1V6h-1V5c-1.6,0-3.4,0-5,0v1H9v1H8v1H7v1H6c0,2.3,0,4.7,0,7h1v1h1v1h1v1h1
		v1c1.6,0,3.4,0,5,0v-1h1v-1h1v-1h1v-1h1C19,15.5,19,14.5,19,14z M15,15v1h-1c0,0.5,0,1.5,0,2h-1c0-0.5,0-1.5,0-2h-1
		c0,0.5,0,1.5,0,2h-1c0-0.5,0-1.5,0-2c-0.5,0-1.5,0-2,0v-1h1c0-1.6,0-3.4,0-5H9V9c0.5,0,1.5,0,2,0c0-0.5,0-1.5,0-2h1
		c0,0.5,0,1.5,0,2h1c0-0.5,0-1.5,0-2h1c0,0.5,0,1.5,0,2h1v1h1c0,0.5,0,1.5,0,2h-1v1h1c0,0.5,0,1.5,0,2H15z"/>
	<path class="stBtc1" d="M20,14c0-1.6,0-3.4,0-5h-1c0,2.3,0,4.7,0,7h1C20,15.5,20,14.5,20,14z"/>
	<path class="stBtc0" d="M4,15c0-2.3,0-4.7,0-7H3c0,3,0,6,0,9h1C4,16.5,4,15.5,4,15z"/>
	<path class="stBtc3" d="M13,15c-0.5,0-1.5,0-2,0c0-0.5,0-1.5,0-2c1.3,0,2.7,0,4,0v-1c-1.3,0-2.7,0-4,0c0-0.5,0-1.5,0-2
		c1.3,0,2.7,0,4,0V9h-1c0-0.5,0-1.5,0-2h-1c0,0.5,0,1.5,0,2h-1c0-0.5,0-1.5,0-2h-1c0,0.5,0,1.5,0,2c-0.5,0-1.5,0-2,0v1h1
		c0,1.6,0,3.4,0,5H9v1c0.5,0,1.5,0,2,0c0,0.5,0,1.5,0,2h1c0-0.5,0-1.5,0-2h1c0,0.5,0,1.5,0,2h1c0-0.5,0-1.5,0-2h1v-1
		C14.5,15,13.5,15,13,15z"/>
	<path class="stBtc4" d="M21,15c0-2.3,0-4.7,0-7h-1V7h-1V6h-1V5h-1V4c-2.6,0-5.4,0-8,0v1H8v1H7v1H6v1H5c0,3,0,6,0,9h1v1h1v1h1v1h1v1
		c2.6,0,5.4,0,8,0v-1h1v-1h1v-1h1v-1h1C21,16.5,21,15.5,21,15z M19,16v1h-1v1h-1v1h-1v1c-1.9,0-4.1,0-6,0v-1H9v-1H8v-1H7v-1H6
		c0-2.3,0-4.7,0-7h1V8h1V7h1V6h1V5c1.9,0,4.1,0,6,0v1h1v1h1v1h1v1h1c0,2.3,0,4.7,0,7H19z"/>
	<path class="stBtc1" d="M5,16c0-2.6,0-5.4,0-8H4c0,3,0,6,0,9h1V16z"/>
	<rect x="18" y="16" class="stBtc1" width="1" height="1"/>
	<rect x="4" y="17" class="stBtc0" width="1" height="1"/>
	<rect x="5" y="17" class="stBtc1" width="1" height="1"/>
	<rect x="17" y="17" class="stBtc1" width="1" height="1"/>
	<rect x="20" y="17" class="stBtc0" width="1" height="1"/>
	<rect x="5" y="18" class="stBtc0" width="1" height="1"/>
	<rect x="6" y="18" class="stBtc1" width="1" height="1"/>
	<rect x="16" y="18" class="stBtc1" width="1" height="1"/>
	<rect x="19" y="18" class="stBtc0" width="1" height="1"/>
	<rect x="6" y="19" class="stBtc0" width="1" height="1"/>
	<rect x="7" y="19" class="stBtc1" width="1" height="1"/>
	<rect x="15" y="19" class="stBtc1" width="1" height="1"/>
	<rect x="18" y="19" class="stBtc0" width="1" height="1"/>
	<rect x="7" y="20" class="stBtc0" width="1" height="1"/>
	<rect x="8" y="20" class="stBtc1" width="1" height="1"/>
	<rect x="17" y="20" class="stBtc0" width="1" height="1"/>
	<path class="stBtc0" d="M15,21c-2.3,0-4.7,0-7,0v1c3,0,6,0,9,0v-1C16.5,21,15.5,21,15,21z"/>
</g>
</svg>
