<?xml version="1.0" encoding="UTF-8"?>
<svg width="474px" height="101px" viewBox="0 0 474 101" version="1.1" xmlns="http://www.w3.org/2000/svg" xmlns:xlink="http://www.w3.org/1999/xlink">
    <title>编组 9</title>
    <g id="页面-1" stroke="none" stroke-width="1" fill="none" fill-rule="evenodd">
        <g id="游戏玩法" transform="translate(-137.000000, -360.000000)" fill-rule="nonzero">
            <g id="编组-9" transform="translate(144.000000, 367.000000)">
                <path d="M367.748916,77.2721257 L371.321667,77.655889 C376.990306,78.2893572 382.956655,79.3035275 389.220327,80.7009138 L389.220327,80.7009138 L385.232147,91.2262493 C378.236184,89.1628085 370.710974,87.8061143 362.657965,87.1486338 L362.657965,87.1486338 L367.748916,77.2721257 Z M359.566533,77.0151064 L366.172805,85.7098997 L360.745628,87.3582512 C358.387826,88.0644456 356.288074,88.5772854 354.447463,88.9031341 C351.730092,89.3923114 348.141021,89.9057945 343.679701,90.440138 L343.679701,90.440138 L337.615957,79.8849543 L343.853675,79.4178251 C346.79025,79.1929009 349.37014,78.9306351 351.593168,78.6294305 C354.777617,78.2113489 357.431438,77.6782067 359.566533,77.0151064 L359.566533,77.0151064 Z M119.171051,42.9201739 L119.171051,53.4606957 L118.261,53.46 L118.261,79.732 L118.593064,79.9810985 C119.405673,80.6015655 120.189255,81.2464621 120.943909,81.915638 L121.504477,82.42207 L115.110738,92.3035215 C111.865889,88.5733022 108.489192,85.7983731 104.942432,84.0333831 L104.63,83.882 L104.346159,84.1624903 C101.786606,86.6378513 98.6380331,88.8937176 94.8842924,90.9102319 L94.2530628,91.2440979 L87.4601748,82.002183 L91.015,80.227 L91.015,53.46 L89.7875087,53.4606957 L89.7875087,42.9201739 L119.171051,42.9201739 Z M322.248763,64.0253172 L325.032132,65.729953 C326.762567,66.8074445 328.239667,67.903154 329.47026,69.0081636 L329.226,68.793 L339.503363,68.7932174 L339.503363,79.3337391 L337.534,79.333 L337.548599,79.3362322 C338.902149,79.6091432 340.340864,79.8609708 341.864217,80.093515 L342.522263,80.1920014 L336.236324,90.7676593 C328.922363,88.8524278 323.62918,86.6229063 320.278262,84.2225831 C319.150929,83.4481359 318.149824,82.6170312 317.271126,81.7324654 L317.209,81.668 L317.028176,81.8625013 C315.482467,83.4729565 313.726052,84.7526541 311.700948,85.7683897 L311.292327,85.9680371 C308.371439,87.4686777 303.855158,89.056967 297.718664,90.6751333 L297.718664,90.6751333 L290.131498,80.8222836 L295.938898,79.4216406 L295.938898,79.4216406 L296.299,79.333 L293.423153,79.3337391 L293.423153,68.7932174 L310.837631,68.7932174 C310.844516,68.6000148 310.84774,68.4055939 310.84774,68.208 L310.84774,68.208 L310.84774,64.3681187 L320.864,65.297 L322.248763,64.0253172 Z M96.6055287,60.3050435 L96.6055287,68.1561303 L96.18634,69.2847276 C95.0441713,72.3250131 93.9050682,74.7529108 92.7922085,76.5802845 C92.435184,77.2004215 92.0367932,77.8339479 91.5967116,78.4806765 C93.047569,80.0191301 94.3618637,81.5186387 95.540288,82.9785521 L95.540288,82.9785521 L87.0727586,91.4267806 C84.4090918,86.7106626 79.1022877,81.4008429 71.2526294,75.4035149 L71.2526294,75.4035149 L75.657,71.208 L72.7268816,71.2086957 L72.7268816,60.3050435 L96.6055287,60.3050435 Z M139.825784,40.9683478 L139.825784,45.6068004 C142.191861,46.2828633 143.963949,47.3358468 145.392009,48.7068858 C147.447679,50.705186 149.096936,53.8276257 150.084215,58.2775717 L150.084215,58.2775717 L142.854,61.256 L142.915681,61.2887821 C143.814112,61.7726891 144.581837,62.2577931 145.22189,62.73918 L145.455932,62.9195163 C148.497947,65.3983485 150.016665,68.5965351 150.016665,72.5655652 C150.016665,76.4759951 148.555277,79.5988188 145.706127,81.9747652 C144.093132,83.3158638 142.140093,84.3291279 139.825784,84.9695998 L139.825784,84.9695998 L139.825784,89.456 L129.140688,89.456 L129.140688,85.0202266 C126.973875,84.3980004 125.158973,83.3950911 123.65575,82.0559869 C120.888275,79.59066 119.114482,75.9171804 118.502342,70.8422732 L118.502342,70.8422732 L126.87,67.595 L126.628844,67.4747827 C125.700051,66.9997329 124.950869,66.5422863 124.34156,66.0966208 L124.143582,65.948494 C121.257763,63.6548434 119.859707,60.7533117 119.859707,57.2233043 C119.859707,53.3250397 121.265875,50.3268466 123.90228,48.1276907 C125.317009,46.9558754 127.054868,46.0622908 129.140688,45.5000959 L129.140688,45.5000959 L129.140688,40.9683478 L139.825784,40.9683478 Z M161.110662,45.2351304 L169.757897,66.5187364 L178.369401,45.2351304 L190.097765,45.2351304 L190.097765,85.4161739 L178.502769,85.4161739 L178.502769,75.0708015 L174.247835,85.4161739 L165.235896,85.4161739 L160.980961,75.0708015 L160.980961,85.4161739 L149.385966,85.4161739 L149.385966,45.2351304 L161.110662,45.2351304 Z M221.580309,45.2351304 L221.580309,56.5473043 L201.517011,56.5473043 L201.517011,59.2610435 L219.715013,59.2610435 L219.715013,70.6186087 L201.517011,70.6186087 L201.517011,74.0586087 L221.580309,74.0586087 L221.580309,85.4161739 L189.922016,85.4161739 L189.922016,45.2351304 L221.580309,45.2351304 Z M232.674305,45.2351304 L241.321541,66.5187364 L249.933044,45.2351304 L261.661408,45.2351304 L261.661408,85.4161739 L250.066413,85.4161739 L250.066413,75.0708015 L245.811478,85.4161739 L236.79954,85.4161739 L232.544605,75.0708015 L232.544605,85.4161739 L220.949609,85.4161739 L220.949609,45.2351304 L232.674305,45.2351304 Z M293.143952,45.2351304 L293.143952,56.5473043 L273.080655,56.5473043 L273.080655,59.2610435 L291.278657,59.2610435 L291.278657,70.6186087 L273.080655,70.6186087 L273.080655,74.0586087 L293.143952,74.0586087 L293.143952,85.4161739 L261.485659,85.4161739 L261.485659,45.2351304 L293.143952,45.2351304 Z M383.724508,60.4866087 L383.724508,83.9636522 L344.377559,83.9636522 L344.377559,60.4866087 L383.724508,60.4866087 Z M314.617595,41.6492174 L314.617595,74.0229565 L303.705024,74.0229565 L303.705,71.892 L303.480063,72.1694075 C302.688323,73.1232791 301.755407,74.0675847 300.673402,74.9983427 L300.307202,75.3080881 L291.5336,68.4302568 C293.737484,66.3806748 295.113715,65.226809 295.836032,64.1965342 L295.913,64.082 L293.605133,64.0822609 L293.605133,53.7233043 L295.561,53.723 L295.561418,42.9201739 L303.705,42.92 L303.705024,41.6492174 L314.617595,41.6492174 Z M319.226049,41.4698309 L330.344812,42.5521156 C330.163765,42.8798335 329.991887,43.1900211 329.828511,43.4838574 L329.762,43.601 L338.638958,43.6010435 L338.638958,50.737666 L337.646632,52.0992159 C337.416629,52.4080209 337.182802,52.7081127 336.945201,52.9995467 L336.682,53.314 L336.682672,55.8566957 L340.231283,55.8566957 L340.231283,65.8525217 L336.682672,65.8525217 C336.596363,69.2769942 335.579981,70.7498702 334.320792,71.7161896 C333.27592,72.5769096 331.514949,73.2966957 328.724162,73.2966957 L328.724162,73.2966957 L322.685893,73.2966957 L322.353,71.681 L320.762176,73.2416262 C318.731883,70.2217762 316.572061,68.3377839 312.897234,65.8988371 L312.827,65.852 L309.20992,65.8525217 L309.209,56.162 L308.179228,53.6491746 L310.137,53.313 L306.284704,48.6395585 L311.611426,46.8306051 C313.308464,46.2415059 314.743458,45.6164622 315.908329,44.938503 C317.184266,44.233913 318.227598,43.0426635 319.226049,41.4698309 L319.226049,41.4698309 Z M85.6751854,49.972994 L87.8953608,52.9791278 C89.5395849,55.2157819 90.8490328,57.1499321 91.828408,58.7785035 C92.3307203,59.6137824 92.8633305,60.5634413 93.4255747,61.6278464 L93.4255747,61.6278464 L83.6613906,68.4971543 C83.135945,67.0135011 82.6111126,65.6834225 82.0852913,64.5075439 C80.9174346,61.8959006 79.1794017,58.7807522 76.8880023,55.1535848 L76.8880023,55.1535848 L85.6751854,49.972994 Z M381.222283,51.2267826 L381.222283,65.6709565 L347.243744,65.6709565 L347.243744,51.2267826 L381.222283,51.2267826 Z M88.2615982,42.0123478 L89.9897667,43.9549258 C93.2193144,47.634938 96.0285675,51.5456819 98.4190276,55.6860371 L98.4190276,55.6860371 L90.1905948,63.522547 L87.661544,59.2341852 C86.7947556,57.7693941 85.9881335,56.4502083 85.2406233,55.2772483 C82.2694103,59.6838476 78.7607206,63.9770659 74.7104382,68.1540023 L74.7104382,68.1540023 L70.8188422,55.7778146 L72.6898723,53.7808099 C75.6235948,50.5950471 78.2799864,46.6672062 80.6795013,42.0123478 L80.6795013,42.0123478 L88.2615982,42.0123478 Z M369.848531,40.9683478 L369.848531,46.0975652 C371.131264,44.7058914 371.469907,43.5850228 371.746025,41.8635692 L371.746025,41.8635692 L384.270299,43.3336546 C383.889764,44.2277168 383.530784,45.0293191 383.185329,45.7542561 L383.019,46.097 L387.819058,46.0975652 L387.819058,61.9488696 L376.542528,61.9488696 L376.542528,56.2749565 L351.741519,56.2749565 L351.741519,61.8126957 L340.464989,61.8126957 L340.464989,46.0975652 L344.41,46.097 L342.112733,43.5891756 L355.332715,41.9740921 L356.88574,44.0467799 C357.358634,44.6901713 357.82386,45.3736655 358.280951,46.0975652 L358.280951,46.0975652 L358.435516,40.9683478 L369.848531,40.9683478 Z M230.956806,24.7272077 C230.149419,25.3687214 229.318485,25.998452 228.463953,26.6163399 L228.463953,26.6163399 L222.172225,15.8877148 C226.011763,14.0036902 228.753117,11.5521505 231.335645,8.01356335 C233.585445,5.04506858 235.725016,0.94430762 237.850397,-4.30379686 L237.850397,-4.30379686 L242.355,-1.429 L242.355009,-2.456 L260.270046,-2.456 L261.217378,0.451966938 C263.17999,6.26696369 267.497315,11.6383347 273.998578,16.6726776 L273.998578,16.6726776 L267.149175,26.5926958 L266.544,26.079 L266.540103,26.1483181 C266.096207,33.4314092 265.395246,37.9049717 264.613384,39.6399869 L264.56228,39.7492582 C263.673717,41.5229172 262.297702,42.8554191 260.35788,43.7269903 C258.837859,44.4099426 256.909307,44.806087 254.544555,44.806087 C251.474173,44.806087 249.283839,44.7356863 247.972657,44.6080577 C247.34449,44.5469129 246.52086,44.4339653 245.501948,44.2677748 L245.501948,44.2677748 L243.728,37.321 L243.508733,37.5627175 C240.551618,40.7518414 236.608581,43.6168545 231.604578,46.1486517 L230.999001,46.4508673 L223.828583,37.1392163 L227.984834,34.8965115 C231.465532,32.9871775 234.203583,30.8593354 236.153542,28.461534 C237.061575,27.2730476 237.837197,25.8646796 238.494646,24.2438261 L238.494646,24.2438261 L231.555,24.243 Z M250.182947,24.6087227 C249.356836,27.572367 248.361445,30.1500923 247.21301,32.3495507 L246.99,32.766 L248.46942,32.9714733 C250.186728,33.1923035 251.919852,33.3183548 253.668777,33.3498627 L254.066,33.353 C254.384801,31.7902452 254.493635,29.0534726 254.552857,24.6999731 L254.558813,24.2438261 L250.281,24.243 Z M244.514745,8.79358215 C243.670068,10.3511738 242.84319,11.7415399 242.036326,12.9661314 L241.908,13.158 L254.698,13.158 L254.519566,12.8695593 C253.839119,11.7445414 253.206865,10.5755495 252.623121,9.36240433 L252.278699,8.62921739 L244.602,8.629 Z M204.159446,31.3975838 L211.428492,39.6454986 L205.967836,41.8729613 C201.282078,43.7457056 196.595661,45.0236139 191.910413,45.712934 L191.910413,45.712934 L187.289144,35.4375814 L192.675969,34.6932603 C197.195325,34.039874 201.026888,32.9548025 204.159446,31.3975838 L204.159446,31.3975838 Z M208.356355,31.5637824 L211.762885,32.1458419 C216.053563,32.9103958 220.603826,34.1872114 225.41123,35.9861516 L225.41123,35.9861516 L221.296188,46.5069119 C215.798867,43.7979138 209.849764,42.0823577 203.451812,41.3505098 L203.451812,41.3505098 L208.356355,31.5637824 Z M398.444045,-4.60444823 L409.300681,0.53232384 L407.133796,4.37456096 L406.953934,4.68179813 L406.953934,4.68179813 L406.769992,4.98817391 L410.589309,4.98817391 L410.589,27.117 L415.724165,28.6047168 C415.505674,33.4093042 414.91261,36.7227814 414.208869,38.9166287 L414.133057,39.1474164 C413.845619,40.3037169 413.347961,41.2116455 412.740333,41.9148881 C411.54998,43.29255 409.52117,44.3666242 406.219576,44.4390601 L405.860944,44.4429565 L397.432175,44.4429565 C394.765624,44.3606679 393.142087,43.5824446 391.884712,42.4244309 C390.435515,41.0856402 389.612126,39.3587968 389.536995,37.1868729 L389.531352,36.8577391 L389.531,32.646 L389.525289,32.6636124 C388.8747,34.4759509 388.075071,35.9311704 387.150178,37.1120036 L386.950078,37.3608697 C384.287099,40.5186521 379.731925,43.3434508 373.064235,45.615182 L372.48754,45.8085422 L364.721563,35.8629947 C371.614781,33.9393797 375.740845,32.4943428 377.616893,30.5891467 C377.965754,30.2473093 378.237971,29.8757038 378.468622,29.4520758 L378.602305,29.1914783 L371.7883,29.1914783 L371.7883,4.98817391 L375.964,4.988 L375.58952,4.50011154 C374.960966,3.6887021 374.298564,2.85832321 373.597457,2.00082521 L373.064295,1.35248953 L382.598418,-4.44774913 L384.987769,-1.96531969 C387.264365,0.411887069 389.077336,2.49458003 390.433777,4.27691841 L390.69898,4.62937963 L390.962,4.988 L391.673,4.988 L392.548324,4.03286972 C395.153801,1.1521584 397.066335,-1.57504449 398.252995,-4.17270089 L398.444045,-4.60444823 Z M404.36,29.191 L400.989863,29.1914783 L400.989863,33.5393043 L404.488113,33.5393043 C404.494476,32.7886944 404.210382,31.2191655 404.344758,29.3781686 L404.36,29.191 Z M398.994313,15.5286957 L383.383295,15.5286957 L383.383295,18.6509565 L398.994313,18.6509565 L398.994313,15.5286957 Z M293.89462,-1.72973913 L293.89462,5.4350244 L293.463434,6.95325464 C292.67486,9.70459027 291.793463,12.5857644 290.819367,15.5966441 C291.716154,17.3463911 292.377611,18.9618171 292.816199,20.4378089 C293.561552,22.5476408 293.89462,24.3630501 293.89462,25.8730435 C293.804598,29.4208385 292.878779,31.773326 291.578299,33.2560008 C290.305477,34.7464497 287.927907,35.9705671 283.953986,36.2242535 L283.931,36.225 L283.931213,45.1692174 L272.700178,45.1692174 L272.700178,-1.72973913 L293.89462,-1.72973913 Z M316.460142,-1.91130435 L316.46,21.462 L320.429993,25.1961848 L317.579129,28.1792391 C316.409205,29.3788567 315.175907,30.4446296 313.881047,31.3784283 C316.10916,33.3406168 318.83751,34.9458974 322.047361,36.2158946 L322.047361,36.2158946 L315.977437,46.428122 C312.369601,44.4899094 309.325632,42.3837467 306.826565,40.1278724 L306.603,39.922 L303.744659,40.9968036 C298.648131,42.8744448 292.950945,44.3436729 286.650249,45.3944271 L285.594545,45.5656764 L284.167188,33.9354997 L288.304,33.495 L288.304965,-1.91130435 L316.460142,-1.91130435 Z M299.399,30.126 L299.399,30.887 L299.409363,30.8844412 L299.409363,30.8844412 L299.712,30.776 L299.692951,30.7370955 C299.606711,30.5629887 299.521837,30.3874729 299.43833,30.2105462 L299.399,30.126 Z M195.639994,-3.8837217 L199.612142,6.59929996 L195.550883,7.91568627 C194.752853,8.1680642 193.91332,8.40802569 193.032193,8.63522308 L193.032193,8.63522308 L198.355108,8.89182609 L198.355108,19.613913 L195.774,19.613 L196.41408,20.3365458 C197.400838,21.4627217 198.390868,22.6350022 199.384078,23.8534726 L200.129579,24.7759873 L193.380642,34.6782729 L193.032,34.144 L193.032193,44.9876522 L182.119622,44.9876522 L182.119622,36.5489248 C181.200702,37.6707685 180.225653,38.721433 179.186151,39.7284506 L179.186151,39.7284506 L174.972716,27.9577243 L176.462991,25.8790057 C177.812427,23.9594758 179.018174,21.8706021 180.083128,19.613913 L180.083128,19.613913 L176.068786,19.613913 L176.068786,8.89182609 L177.934,8.891 L176.34993,0.2477886 L180.987611,-0.207905215 C186.641133,-0.797909798 191.528179,-2.01064145 195.639994,-3.8837217 L195.639994,-3.8837217 Z M38.9059574,-3.00069565 L38.835638,1.40276735 C38.6767834,9.79937341 37.7947226,16.7738438 36.2364654,22.3361046 C40.0990332,27.1501396 43.3328172,31.9476076 45.9431788,36.7247838 L45.9431788,36.7247838 L36.929367,45.7180496 L34.4105609,40.8141901 C33.3168212,38.7196675 32.0018032,36.5397875 30.4675975,34.2731243 C27.184507,38.3856008 22.3651155,42.3321126 15.9200111,46.0391387 L15.9200111,46.0391387 L8.1637211,36.6656106 L12.2184,34.2540754 C17.5138175,31.0672819 21.2059231,27.7587487 23.120446,24.1739391 C26.0023032,18.7984001 27.2578087,9.69965286 27.2370724,-3.00069565 L27.2370724,-3.00069565 L38.9059574,-3.00069565 Z M436.545647,-3.70444494 L447.483673,-2.80571962 C447.190594,-1.87549112 446.929137,-1.06529523 446.691986,-0.35262168 L446.681,-0.322 L456.948719,-0.322608696 L456.948,6.395 L461.22525,6.39530435 L461.22525,29.009913 L450.130699,29.009913 L450.130699,16.9358261 L440.934477,16.9358261 L440.934477,29.009913 L431.153,29.009 L431.153051,36.8995294 C431.08407,39.953678 430.22813,41.5887079 429.184661,42.6383924 L429.067979,42.7526575 C427.951887,43.8959116 426.084964,44.806087 423.058056,44.806087 L423.058056,44.806087 L416.834873,44.806087 L414.322562,32.5238221 L415.579,32.743 L414.18194,21.0078277 L418.011384,20.3816372 C418.704021,20.257884 419.401467,20.089787 420.103996,19.878296 L420.103996,19.878296 L420.103996,15.5286957 L414.553605,15.5286957 L414.553605,4.8066087 L420.103996,4.8066087 L420.103996,-3.5 L431.153051,-3.5 L431.153,4.436 L431.495713,4.16831424 C432.147178,3.64450526 432.735277,3.10210452 433.258011,2.53891903 L433.563791,2.19849602 C434.752289,0.934304635 435.629227,-1.05749047 436.545647,-3.70444494 L436.545647,-3.70444494 Z M420.103,31.696 L419.812675,31.7921085 C418.431553,32.238117 417.031282,32.6459076 415.611846,33.0154385 L416.212,32.854 L419.385126,33.4101798 C419.558288,33.440497 419.722068,33.4684447 419.877345,33.4940879 L420.103996,33.5308324 L420.103,31.696 Z M450.715903,19.5133913 L450.715,23.417 L463.5,23.4170435 L463.5,34.1391304 L460.546,34.139 L460.672437,34.181182 C461.879543,34.5759273 463.204588,34.9657421 464.646473,35.3553411 L465.192654,35.5014398 L459.055641,45.5432011 C453.466453,43.7037636 449.4887,41.7338261 447.034294,39.7747767 C446.643214,39.4483903 446.257511,39.1026943 445.87652,38.736649 L445.601,38.465 L445.370031,38.6892875 C442.399699,41.5011789 437.691359,43.7336807 431.031574,45.1472342 L430.455951,45.2663848 L424.261055,35.3286682 L429.144,34.139 L427.883642,34.1391304 L427.883642,23.4170435 L439.439,23.417 L439.439373,19.5133913 L450.715903,19.5133913 Z M356.268272,-3.36382609 L356.268272,0.902956522 L366.186183,0.902956522 L366.186,9.436 L367.642024,9.43652174 L367.642,18.287 L367.960489,18.2878261 L367.960489,29.1914783 L363.183513,29.1914783 L363.183513,36.538158 C363.10885,39.7139866 362.167853,41.3624496 361.026744,42.4161845 C359.907716,43.5468971 358.046367,44.4429565 355.043022,44.4429565 L355.043022,44.4429565 L346.4708,44.4429565 L344.144884,32.4734743 C347.844236,32.9253935 350.291181,33.1818422 352.088962,33.2922222 L352.088962,33.2922222 L352.088962,29.1914783 L334.482395,29.1914783 L334.482395,18.2878261 L334.846,18.287 L334.846355,9.43652174 L335.756,9.436 L335.756256,0.902956522 L345.355702,0.902956522 L345.355702,-3.36382609 L356.268272,-3.36382609 Z M340.61799,-0.322608696 L340.61799,40.7208696 L331.018,40.72 L331.018544,41.7648696 L320.105974,41.7648696 L320.105974,-0.322608696 L340.61799,-0.322608696 Z M159.096034,-0.277217391 C163.033761,-0.277217391 166.353924,0.655242001 169.092574,2.40845915 C172.676863,4.70303379 175.324628,8.4344749 176.858744,13.7624852 L176.858744,13.7624852 L173.576,15.065 L176.244536,15.0650435 L176.244536,40.4031304 L164.422065,40.4031304 L164.422,39.864 L164.232271,39.928596 C162.615631,40.4505632 160.849114,40.725435 158.909733,40.7620393 L158.459104,40.7662609 C152.83417,40.7662609 148.387616,38.8483557 145.042981,35.173893 C141.8129,31.6252823 140.082237,26.8792611 140.082237,20.8346087 C140.082237,14.4877937 142.040055,9.39429807 145.784465,5.47872029 C149.417993,1.63738905 153.856915,-0.277217391 159.096034,-0.277217391 Z M159.096034,11.2165217 C157.185217,11.2165217 155.586335,11.9088813 154.304703,13.3056264 C152.611751,15.1336042 151.904708,17.6795119 151.904708,20.8346087 C151.904708,23.5990707 152.462477,25.8268893 153.869965,27.3870931 C155.033467,28.6563287 156.583052,29.2271304 158.459104,29.2271304 C160.065211,29.2271304 161.4351,28.8978229 162.517564,28.0988815 C163.075288,27.6745308 163.489267,27.1408505 163.786157,26.5133913 L163.786157,26.5133913 L155.959994,26.5133913 L155.959994,15.0650435 L165.096,15.065 C164.477774,13.8331477 163.749922,12.876499 162.833125,12.2332065 L162.618167,12.0903369 C161.626092,11.4667539 160.446044,11.2165217 159.096034,11.2165217 Z M78.748739,0.222086957 L78.748739,11.5342609 L66.7835526,11.5342609 L66.7835526,40.4031304 L55.143062,40.4031304 L55.143062,11.5342609 L43.1778756,11.5342609 L43.1778756,0.222086957 L78.748739,0.222086957 Z M95.1160612,0.222086957 C99.7730878,0.303522905 102.998215,1.39142942 105.461585,3.23474564 C108.528467,5.57199124 110.140293,8.82826668 110.140293,13.118087 C110.140293,17.2806438 108.540827,20.5193112 105.446567,22.8877319 C102.904064,24.8629611 99.6256679,25.9780583 95.541659,26.0551887 L95.0845614,26.0594783 L88.6666502,26.0594783 L88.6666502,40.4031304 L76.9806646,40.4031304 L76.9806646,0.222086957 L95.1160612,0.222086957 Z M94.9935714,11.5342609 L88.6666502,11.5342609 L88.6666502,14.701913 L94.9935714,14.701913 L95.2677489,14.7006142 C96.4395308,14.6888079 97.3961461,14.589544 98.0208155,14.1241874 C98.2875877,13.9254515 98.3147702,13.5932795 98.3175172,13.2479622 L98.3175172,13.2479622 L98.3175172,12.9882117 C98.3147702,12.6428944 98.2875877,12.3107224 98.0208155,12.1119866 C97.3480946,11.6108332 96.2903951,11.5342609 94.9935714,11.5342609 L94.9935714,11.5342609 Z M141.167886,0.222086957 L141.167886,11.5342609 L121.104589,11.5342609 L121.104589,14.248 L139.302591,14.248 L139.302591,25.6055652 L121.104589,25.6055652 L121.104589,29.0455652 L141.167886,29.0455652 L141.167886,40.4031304 L109.509593,40.4031304 L109.509593,0.222086957 L141.167886,0.222086957 Z M13.4179112,-3.00069565 L13.417,24.15 L14.1279569,23.8451334 C16.6399624,22.749929 19.159995,21.5424973 21.6881954,20.2231613 L22.7722104,19.6508813 L25.5111261,30.8191953 L22.5689691,32.4437375 C16.5700381,35.7145058 9.04365078,38.5935913 -0.0232562147,41.0506864 L-0.0232562147,41.0506864 L-4.85226219,30.070131 L0.419765336,28.6787734 C0.886395569,28.5528518 1.35411217,28.4236739 1.82291564,28.2912414 L1.82291564,28.2912414 L1.82291564,-3.00069565 L13.4179112,-3.00069565 Z M343.995787,22.5665721 L346.453115,24.6986524 C349.28356,27.1648847 351.532319,29.310379 353.205598,31.1289032 C354.01243,32.00577 354.883908,33.022289 355.81928,34.1790957 L355.81928,34.1790957 L345.501753,41.2705245 C343.847995,38.0154436 340.23235,33.75843 334.73165,28.4371392 L334.73165,28.4371392 L343.995787,22.5665721 Z M222.194491,14.3841739 L222.194491,38.5874783 L193.493374,38.5874783 L193.493374,14.3841739 L222.194491,14.3841739 Z M441.684754,10.2476982 L452.556607,11.2567282 C452.049439,12.9299797 451.681173,14.1291667 451.398061,15.0286556 L451.362,15.14 L451.758743,15.4434752 C453.643805,16.910143 455.391455,18.5139042 457.002185,20.2541573 L457.534024,20.8392961 L451.028358,30.7664594 C449.240083,28.2925364 447.448313,26.1856053 445.637327,24.4668008 C443.86872,25.9164452 441.492904,27.3797949 438.44939,28.7959428 L438.44939,28.7959428 L433.166145,18.7438819 C436.638414,17.206013 438.364181,16.3700449 439.42094,15.3156954 C440.275338,14.4963339 440.742234,12.618706 441.684754,10.2476982 L441.684754,10.2476982 Z M18.3013342,-0.038222745 L20.5700632,3.55181326 C24.4761906,9.75283894 27.3363907,14.8704674 29.1611426,18.8988875 L29.1611426,18.8988875 L18.5227579,26.1554904 C16.7421935,20.7226862 13.4740387,13.9722532 8.74661064,5.89080376 L8.74661064,5.89080376 L18.3013342,-0.038222745 Z M212.777025,-3.5 L212.777,-0.867 L222.876916,-0.867304348 L222.876916,9.31008696 L221.648,9.31 L221.648,9.436 L224.469241,9.43652174 L224.469241,19.613913 L191.901048,19.613913 L191.901048,9.43652174 L193.675,9.436 L193.675,9.31 L192.446988,9.31008696 L192.446988,-0.867304348 L201.864455,-0.867304348 L201.864455,-3.5 L212.777025,-3.5 Z" id="以TPEG積分限時兌換領$MEME獎賞" stroke="#3A1D06" stroke-width="7" fill="#3A1D06" stroke-linejoin="round"></path>
                <path d="M1.95628524,36.8577391 C9.72076617,34.5881739 16.226552,31.9857391 21.4736426,29.0504348 L21.4736426,29.0504348 L20.4272575,24.7836522 C16.908977,26.5085217 13.4058616,28.0215652 9.9179112,29.3227826 L9.9179112,29.3227826 L9.9179112,0.499304348 L5.32291564,0.499304348 L5.32291564,30.9114783 C3.53344543,31.4561739 1.75914021,31.9554783 0,32.4093913 L0,32.4093913 L1.95628524,36.8577391 Z M16.696667,41.4876522 C23.3692678,37.2813913 27.9187684,32.817913 30.3451687,28.0972174 C33.499489,32.2732174 36.0017144,36.192 37.8518446,39.8535652 L37.8518446,39.8535652 L41.582435,36.1314783 C39.0347147,31.8041739 35.9562193,27.4617391 32.3469489,23.1041739 C34.2274091,17.3546087 35.2282993,9.81965217 35.3496193,0.499304348 L35.3496193,0.499304348 L30.7091287,0.499304348 C30.4968187,12.18 28.9954835,20.6227826 26.2051232,25.8276522 C23.9910329,29.9733913 19.7448324,33.8921739 13.4665216,37.584 L13.4665216,37.584 L16.696667,41.4876522 Z M20.2452774,20.7438261 L24.703788,17.7026087 C22.8839878,14.1015652 20.3817625,9.7893913 17.1971121,4.76608696 L17.1971121,4.76608696 L13.4665216,7.08104348 C16.347872,12.1951304 18.6074572,16.7493913 20.2452774,20.7438261 L20.2452774,20.7438261 Z M63.2835526,36.9031304 L63.2835526,8.03426087 L75.248739,8.03426087 L75.248739,3.72208696 L46.6778756,3.72208696 L46.6778756,8.03426087 L58.643062,8.03426087 L58.643062,36.9031304 L63.2835526,36.9031304 Z M85.1666502,36.9031304 L85.1666502,22.5594783 L95.0845614,22.5594783 C98.4815218,22.5594783 101.226387,21.7424348 103.319157,20.1083478 C105.533248,18.4137391 106.640293,16.0836522 106.640293,13.118087 C106.640293,10.0617391 105.548413,7.7013913 103.364652,6.03704348 C101.302212,4.49373913 98.5421818,3.72208696 95.0845614,3.72208696 L95.0845614,3.72208696 L80.4806646,3.72208696 L80.4806646,36.9031304 L85.1666502,36.9031304 Z M94.9935714,18.201913 L85.1666502,18.201913 L85.1666502,8.03426087 L94.9935714,8.03426087 C99.5430719,8.03426087 101.817822,9.72886957 101.817822,13.118087 C101.817822,16.5073043 99.5430719,18.201913 94.9935714,18.201913 L94.9935714,18.201913 Z M137.667886,36.9031304 L137.667886,32.5455652 L117.604589,32.5455652 L117.604589,22.1055652 L135.802591,22.1055652 L135.802591,17.748 L117.604589,17.748 L117.604589,8.03426087 L137.667886,8.03426087 L137.667886,3.72208696 L113.009593,3.72208696 L113.009593,36.9031304 L137.667886,36.9031304 Z M158.459104,37.2662609 C162.523324,37.2662609 165.677645,36.0406957 167.922065,33.5895652 L167.922065,33.5895652 L167.922065,36.9031304 L172.744536,36.9031304 L172.744536,18.5650435 L159.459994,18.5650435 L159.459994,23.0133913 L167.922065,23.0133913 C167.922065,26.6144348 166.81502,29.2471304 164.60093,30.9114783 C162.963109,32.121913 160.915834,32.7271304 158.459104,32.7271304 C155.486764,32.7271304 153.090693,31.7285217 151.270893,29.7313043 C149.360103,27.6130435 148.404708,24.6474783 148.404708,20.8346087 C148.404708,16.6283478 149.511753,13.329913 151.725843,10.9393043 C153.697293,8.79078261 156.154024,7.71652174 159.096034,7.71652174 C163.342235,7.71652174 166.375235,9.62295652 168.195035,13.4358261 L168.195035,13.4358261 L172.426071,11.7563478 C169.90868,6.06730435 165.465335,3.22278261 159.096034,3.22278261 C154.849833,3.22278261 151.255728,4.78121739 148.313718,7.89808696 C145.159397,11.1965217 143.582237,15.5086957 143.582237,20.8346087 C143.582237,25.857913 144.931922,29.8523478 147.631293,32.817913 C150.330663,35.7834783 153.939933,37.2662609 158.459104,37.2662609 Z M220.969241,16.113913 L220.969241,12.9365217 L209.277025,12.9365217 L209.277025,10.9846957 L218.148551,10.9846957 L218.148551,7.94347826 L209.277025,7.94347826 L209.277025,5.81008696 L219.376916,5.81008696 L219.376916,2.63269565 L209.277025,2.63269565 L209.277025,0 L205.364455,0 L205.364455,2.63269565 L195.946988,2.63269565 L195.946988,5.81008696 L205.364455,5.81008696 L205.364455,7.94347826 L197.175354,7.94347826 L197.175354,10.9846957 L205.364455,10.9846957 L205.364455,12.9365217 L195.401048,12.9365217 L195.401048,16.113913 L220.969241,16.113913 Z M189.532193,41.4876522 L189.532193,22.5594783 C190.624073,24.1027826 191.928263,26.0394783 193.444763,28.3695652 L193.444763,28.3695652 L195.765008,24.9652174 C193.672238,22.4535652 191.594633,20.1537391 189.532193,18.0657391 L189.532193,18.0657391 L189.532193,16.113913 L194.855108,16.113913 L194.855108,12.3918261 L189.532193,12.3918261 L189.532193,5.85547826 C191.564303,5.43182609 193.399268,4.94765217 195.037088,4.40295652 L195.037088,4.40295652 L193.626743,0.680869565 C189.774833,2.01234783 185.392147,2.90504348 180.478687,3.35895652 L180.478687,3.35895652 L181.161112,7.08104348 C182.707942,6.92973913 184.194112,6.74817391 185.619622,6.53634783 L185.619622,6.53634783 L185.619622,12.3918261 L179.568786,12.3918261 L179.568786,16.113913 L185.301157,16.113913 C183.633007,20.8043478 181.494742,24.9349565 178.886361,28.5057391 L178.886361,28.5057391 L180.478687,32.954087 C182.450137,30.2608696 184.118287,27.0986087 185.483137,23.4673043 C185.543797,23.3462609 185.589292,23.2252174 185.619622,23.1041739 L185.619622,23.1041739 L185.619622,41.4876522 L189.532193,41.4876522 Z M218.694491,35.0874783 L218.694491,17.8841739 L196.993374,17.8841739 L196.993374,35.0874783 L218.694491,35.0874783 Z M214.781921,22.8318261 L200.905944,22.8318261 L200.905944,20.9253913 L214.781921,20.9253913 L214.781921,22.8318261 Z M214.781921,27.4617391 L200.905944,27.4617391 L200.905944,25.509913 L214.781921,25.509913 L214.781921,27.4617391 Z M214.781921,32.0916522 L200.905944,32.0916522 L200.905944,30.1398261 L214.781921,30.1398261 L214.781921,32.0916522 Z M219.376916,41.8053913 L220.832756,38.0833043 C217.162826,36.8728696 213.659711,35.9953043 210.32341,35.4506087 L210.32341,35.4506087 L208.731085,38.628 C212.431345,39.3542609 215.979956,40.4133913 219.376916,41.8053913 L219.376916,41.8053913 Z M193.990703,41.8053913 C197.842614,41.0488696 201.694524,39.8686957 205.546435,38.2648696 L205.546435,38.2648696 L203.226189,35.6321739 C200.132529,36.8426087 196.523258,37.7201739 192.398378,38.2648696 L192.398378,38.2648696 L193.990703,41.8053913 Z M231.979033,41.9869565 C236.801503,39.2937391 240.425939,36.2525217 242.852339,32.8633043 C244.854119,29.8674783 246.416114,25.8276522 247.538325,20.7438261 L247.538325,20.7438261 L258.093166,20.7438261 C258.032506,28.4906087 257.789866,32.9692174 257.365246,34.1796522 C257.031616,35.9650435 256.091386,36.8577391 254.544555,36.8577391 C252.027165,36.8577391 249.540105,36.6761739 247.083375,36.3130435 L247.083375,36.3130435 L248.31174,41.1245217 C249.55527,41.2455652 251.632875,41.306087 254.544555,41.306087 C258.093166,41.306087 260.383081,40.2772174 261.414301,38.2194783 C262.384861,36.2222609 263.036956,29.685913 263.370586,18.6104348 C264.310817,19.5485217 265.342037,20.4866087 266.464247,21.4246957 L266.464247,21.4246957 L269.284937,17.3394783 C263.400916,12.2556522 259.549006,6.82382609 257.729206,1.044 L257.729206,1.044 L245.855009,1.044 L245.855009,5.12921739 L254.59005,5.12921739 C255.894241,8.42765217 257.547226,11.4083478 259.549006,14.0713043 C260.155606,14.9488696 260.822866,15.8113043 261.550786,16.6586087 L261.550786,16.6586087 L234.617743,16.6586087 C235.739953,15.5086957 236.756008,14.3133913 237.665908,13.0726957 C239.455379,10.7728696 241.351004,7.53495652 243.352784,3.35895652 L243.352784,3.35895652 L239.440214,0.862434783 C237.711403,4.64504348 235.952263,7.71652174 234.162793,10.0768696 C231.888043,13.1937391 229.491972,15.554087 226.974582,17.157913 L226.974582,17.157913 L229.476807,21.4246957 C230.993308,20.184 232.418818,18.897913 233.753338,17.5664348 L233.753338,17.5664348 L233.753338,20.7438261 L243.261794,20.7438261 C242.260904,24.8593043 240.805064,28.1577391 238.894274,30.6391304 C236.589193,33.4836522 233.328718,36.0255652 229.112847,38.2648696 L229.112847,38.2648696 L231.979033,41.9869565 Z M314.734448,41.6692174 L317.054693,37.7655652 C313.475752,35.8591304 310.579237,33.4685217 308.365147,30.5937391 C310.973527,29.3530435 313.339267,27.597913 315.462368,25.3283478 L315.462368,25.3283478 L312.277717,22.3325217 C310.397257,24.4810435 308.395477,26.1302609 306.272377,27.2801739 C305.423136,25.5250435 304.725546,23.5126957 304.179606,21.2431304 L304.179606,21.2431304 L312.960142,21.2431304 L312.960142,1.58869565 L291.804965,1.58869565 L291.804965,36.54 C290.561435,36.7518261 289.317905,36.9182609 288.074374,37.0393043 L288.074374,37.0393043 L288.620314,41.4876522 C294.019055,40.4587826 298.932516,39.0970435 303.360696,37.4024348 L303.360696,37.4024348 L303.360696,33.1356522 C300.812976,34.1645217 298.325916,34.9815652 295.899515,35.5867826 L295.899515,35.5867826 L295.899515,21.2431304 L300.176046,21.2431304 C301.055616,25.5401739 302.541786,29.2168696 304.634556,32.2732174 C306.848647,35.7229565 310.215277,38.8549565 314.734448,41.6692174 L314.734448,41.6692174 Z M280.431213,41.6692174 L280.431213,5.67391304 L286.118089,5.67391304 C285.450829,8.60921739 284.328619,12.2102609 282.751459,16.4770435 C284.085979,18.6255652 284.995879,20.4714783 285.481159,22.0147826 C285.905779,23.2252174 286.118089,24.5113043 286.118089,25.8730435 C286.118089,26.9926957 285.860284,27.7189565 285.344674,28.0518261 C284.920054,28.4754783 284.237629,28.6873043 283.297399,28.6873043 C282.630139,28.6873043 281.917384,28.6267826 281.159134,28.5057391 L281.159134,28.5057391 L282.387499,32.7725217 C285.754129,32.7725217 287.937889,32.1673043 288.93878,30.9568696 C289.84868,29.928 290.33396,28.2333913 290.39462,25.8730435 C290.39462,24.6626087 290.09132,23.210087 289.48472,21.5154783 C288.99944,19.8511304 288.180529,17.990087 287.027989,15.9323478 C288.301849,12.0589565 289.42406,8.3973913 290.39462,4.94765217 L290.39462,4.94765217 L290.39462,1.77026087 L276.200178,1.77026087 L276.200178,41.6692174 L280.431213,41.6692174 Z M308.865592,9.396 L295.899515,9.396 L295.899515,5.31078261 L308.865592,5.31078261 L308.865592,9.396 Z M308.865592,17.5210435 L295.899515,17.5210435 L295.899515,13.118087 L308.865592,13.118087 L308.865592,17.5210435 Z M355.043022,40.9429565 C356.771833,40.9429565 357.954703,40.5949565 358.591633,39.8989565 C359.319553,39.2634783 359.683513,38.1286957 359.683513,36.4946087 L359.683513,36.4946087 L359.683513,25.6914783 L364.460489,25.6914783 L364.460489,21.7878261 L359.683513,21.7878261 L359.683513,17.0217391 L364.142024,17.0217391 L364.142024,12.9365217 L352.768272,12.9365217 L352.768272,8.3066087 L362.686183,8.3066087 L362.686183,4.40295652 L352.768272,4.40295652 L352.768272,0.136173913 L348.855702,0.136173913 L348.855702,4.40295652 L339.256256,4.40295652 L339.256256,8.3066087 L348.855702,8.3066087 L348.855702,12.9365217 L338.346355,12.9365217 L338.346355,17.0217391 L355.588962,17.0217391 L355.588962,21.7878261 L337.982395,21.7878261 L337.982395,25.6914783 L355.588962,25.6914783 L355.588962,35.8137391 C355.588962,36.5097391 355.058187,36.8577391 353.996637,36.8577391 C352.571127,36.8577391 350.736162,36.7366957 348.491742,36.4946087 L348.491742,36.4946087 L349.356147,40.9429565 L355.043022,40.9429565 Z M327.518544,38.2648696 L327.518544,33.861913 L333.20542,33.861913 L333.20542,37.2208696 L337.11799,37.2208696 L337.11799,3.1773913 L323.605974,3.1773913 L323.605974,38.2648696 L327.518544,38.2648696 Z M333.20542,16.6586087 L327.518544,16.6586087 L327.518544,7.08104348 L333.20542,7.08104348 L333.20542,16.6586087 Z M333.20542,29.9582609 L327.518544,29.9582609 L327.518544,20.5622609 L333.20542,20.5622609 L333.20542,29.9582609 Z M346.535456,36.3130435 L350.630007,33.4987826 C348.931527,31.6528696 346.611281,29.4589565 343.669271,26.9170435 L343.669271,26.9170435 L340.302641,29.0504348 C342.941351,31.773913 345.018956,34.1947826 346.535456,36.3130435 L346.535456,36.3130435 Z M373.695975,41.6692174 C378.639765,39.7930435 382.158046,37.6142609 384.250816,35.1328696 C385.949296,33.0751304 387.041176,29.928 387.526456,25.6914783 L387.526456,25.6914783 L393.031352,25.6914783 L393.031352,36.8577391 C393.031352,38.0984348 393.440807,39.0970435 394.259717,39.8535652 C395.048297,40.5798261 396.125012,40.9429565 397.489863,40.9429565 L397.489863,40.9429565 L405.860944,40.9429565 C407.923384,40.9429565 409.333729,40.5041739 410.091979,39.6266087 C411.001879,38.7793043 411.653974,35.9650435 412.048264,31.1838261 L412.048264,31.1838261 L407.817229,29.9582609 C407.665579,33.7711304 407.377444,35.9045217 406.952824,36.3584348 C406.619194,36.8123478 406.073254,37.0393043 405.315003,37.0393043 L405.315003,37.0393043 L399.082188,37.0393043 C398.020638,37.0393043 397.489863,36.5702609 397.489863,35.6321739 L397.489863,35.6321739 L397.489863,25.6914783 L407.089309,25.6914783 L407.089309,8.48817391 L399.719118,8.48817391 C401.629908,6.43043478 403.191903,4.29704348 404.405103,2.088 L404.405103,2.088 L399.992088,0 C398.657568,2.20904348 396.883262,4.50886957 394.669172,6.89947826 L394.669172,6.89947826 L397.717338,8.48817391 L385.297201,8.48817391 L387.890416,6.71791304 C386.495236,4.84173913 384.538951,2.60243478 382.021561,0 L382.021561,0 L378.29097,2.26956522 C380.08044,4.5693913 381.551446,6.64226087 382.703986,8.48817391 L382.703986,8.48817391 L375.2883,8.48817391 L375.2883,25.6914783 L383.113441,25.6914783 C382.628161,29.1109565 381.627271,31.562087 380.11077,33.0448696 C378.41229,34.7697391 375.25797,36.3433043 370.647809,37.7655652 L370.647809,37.7655652 L373.695975,41.6692174 Z M402.494313,22.1509565 L379.883295,22.1509565 L379.883295,12.0286957 L402.494313,12.0286957 L402.494313,22.1509565 Z M423.058056,41.306087 C424.786866,41.306087 425.969736,40.958087 426.606666,40.262087 C427.304256,39.6266087 427.653051,38.4918261 427.653051,36.8577391 L427.653051,36.8577391 L427.653051,24.7836522 C429.017901,24.0573913 430.382751,23.2403478 431.747602,22.3325217 L431.747602,22.3325217 L431.747602,17.8841739 C430.382751,18.8222609 429.017901,19.6695652 427.653051,20.426087 L427.653051,20.426087 L427.653051,12.0286957 L432.111562,12.0286957 L432.111562,8.80591304 L433.339927,10.3946087 L433.339927,25.509913 L437.434477,25.509913 L437.434477,13.4358261 L453.630699,13.4358261 L453.630699,25.509913 L457.72525,25.509913 L457.72525,9.89530435 L450.309564,9.89530435 C451.371114,8.7453913 452.417499,7.38365217 453.448719,5.81008696 L453.448719,5.81008696 L453.448719,3.1773913 L441.529028,3.1773913 C441.983978,2.33008696 442.393433,1.37686957 442.757393,0.31773913 L442.757393,0.31773913 L438.890317,0 C438.071407,1.96695652 437.176672,3.46486957 436.206112,4.49373913 C435.023242,5.85547826 433.537072,7.12643478 431.747602,8.3066087 L431.747602,8.3066087 L427.653051,8.3066087 L427.653051,0 L423.603996,0 L423.603996,8.3066087 L418.053605,8.3066087 L418.053605,12.0286957 L423.603996,12.0286957 L423.603996,22.3325217 C421.723535,23.1193043 419.873405,23.6488696 418.053605,23.9212174 L418.053605,23.9212174 L418.599545,28.5057391 C420.298025,27.9610435 421.966175,27.3558261 423.603996,26.690087 L423.603996,26.690087 L423.603996,36.1314783 C423.603996,36.8577391 423.058056,37.2208696 421.966175,37.2208696 C421.147265,37.2208696 420.085715,37.0998261 418.781525,36.8577391 L418.781525,36.8577391 L419.691425,41.306087 L423.058056,41.306087 Z M444.759173,9.89530435 L436.024132,9.89530435 C437.297992,8.86643478 438.405037,7.74678261 439.345268,6.53634783 L439.345268,6.53634783 L448.307784,6.53634783 C447.124913,7.80730435 445.942043,8.92695652 444.759173,9.89530435 L444.759173,9.89530435 Z M450.764514,24.7836522 L453.084759,21.2431304 C451.295289,19.488 449.339004,17.8993043 447.215903,16.4770435 C447.458543,15.8415652 447.701184,15.1304348 447.943824,14.3436522 L447.943824,14.3436522 L444.031253,13.9805217 C443.363993,15.7961739 442.651238,17.0671304 441.892988,17.7933913 C440.952758,18.7314783 439.648568,19.593913 437.980417,20.3806957 L437.980417,20.3806957 L439.936703,24.1027826 C442.545083,22.62 444.380048,21.1523478 445.441598,19.6998261 C447.231068,21.0615652 449.005374,22.7561739 450.764514,24.7836522 L450.764514,24.7836522 Z M457.54327,41.306087 L459.81802,37.584 C456.81535,36.6156522 454.464774,35.601913 452.766294,34.5427826 C451.522764,33.7862609 450.127584,32.4850435 448.580754,30.6391304 L448.580754,30.6391304 L460,30.6391304 L460,26.9170435 L447.124913,26.9170435 C447.155243,26.4933913 447.185573,26.0243478 447.215903,25.509913 L447.215903,25.509913 L447.215903,23.0133913 L442.939373,23.0133913 L442.939373,25.509913 C442.939373,25.9638261 442.924208,26.4328696 442.893878,26.9170435 L442.893878,26.9170435 L431.383642,26.9170435 L431.383642,30.6391304 L441.847493,30.6391304 C441.392543,31.5166957 440.816273,32.3186087 440.118683,33.0448696 C438.298882,34.8605217 434.856427,36.3735652 429.791316,37.584 L429.791316,37.584 L432.111562,41.306087 C437.297992,40.0048696 441.028583,38.174087 443.303333,35.8137391 C444.122243,34.9361739 444.819833,33.9375652 445.396103,32.817913 C446.639633,34.5427826 447.913494,35.949913 449.217684,37.0393043 C451.037484,38.4918261 453.812679,39.914087 457.54327,41.306087 L457.54327,41.306087 Z M76.2268816,61.3085217 C79.684502,57.2838261 82.6416774,53.1532174 85.0984077,48.9166957 C86.6452379,50.913913 88.6015231,53.9248696 90.9672634,57.9495652 L90.9672634,57.9495652 L93.9699338,55.089913 C91.8468335,51.7309565 89.4204332,48.5384348 86.6907329,45.5123478 L86.6907329,45.5123478 L82.7781624,45.5123478 C80.3517621,49.9001739 77.6827218,53.6222609 74.7710414,56.6786087 L74.7710414,56.6786087 L76.2268816,61.3085217 Z M114.579171,86.6822609 L116.899417,83.0963478 C114.897636,81.5227826 112.698711,80.1156522 110.302641,78.8749565 L110.302641,78.8749565 L114.761151,78.8749565 L114.761151,53.5012174 L105.38918,53.5012174 C105.84413,52.3815652 106.20809,51.2013913 106.48106,49.9606957 L106.48106,49.9606957 L115.671051,49.9606957 L115.671051,46.4201739 L93.2875087,46.4201739 L93.2875087,49.9606957 L102.341015,49.9606957 C102.037715,51.1711304 101.65859,52.3513043 101.20364,53.5012174 L101.20364,53.5012174 L94.5158738,53.5012174 L94.5158738,78.8749565 L99.5203244,78.8749565 C97.5488742,80.5695652 95.2892889,82.0372174 92.7415686,83.277913 L92.7415686,83.277913 L95.2437939,86.6822609 C98.3677843,84.806087 100.976165,82.7332174 103.068935,80.4636522 L103.068935,80.4636522 L101.249135,78.8749565 L108.437346,78.8749565 L106.981505,81.1445217 C109.589886,82.5062609 112.122441,84.3521739 114.579171,86.6822609 L114.579171,86.6822609 Z M85.2803877,63.0787826 L88.8289981,60.5822609 C87.828108,58.917913 86.4632579,56.9206957 84.7344477,54.5906087 L84.7344477,54.5906087 L81.7317773,56.3608696 C83.2179475,58.8725217 84.4008176,61.1118261 85.2803877,63.0787826 L85.2803877,63.0787826 Z M110.848581,60.9453913 L98.4284443,60.9453913 L98.4284443,57.0417391 L110.848581,57.0417391 L110.848581,60.9453913 Z M87.600633,85.956 L90.7852834,82.7786087 C89.6327432,81.4773913 88.3740481,80.145913 87.0091979,78.7841739 C88.1314081,77.3921739 89.0564732,76.0606957 89.7843933,74.7897391 C90.8762734,73.0043478 91.9833185,70.5834783 93.1055287,67.5271304 L93.1055287,67.5271304 L93.1055287,63.8050435 L76.2268816,63.8050435 L76.2268816,67.7086957 L88.6925131,67.7086957 C87.873603,70.0085217 87.1001879,71.6577391 86.3722678,72.6563478 C85.7959978,73.6549565 84.9922527,74.7594783 83.9610326,75.969913 C82.5961824,74.7594783 81.1403422,73.533913 79.593512,72.2932174 L79.593512,72.2932174 L76.5908417,75.1528696 C81.3526522,79.0262609 85.0225827,82.6273043 87.600633,85.956 L87.600633,85.956 Z M110.848581,68.0264348 L98.4284443,68.0264348 L98.4284443,64.3043478 L110.848581,64.3043478 L110.848581,68.0264348 Z M110.848581,75.3344348 L98.4284443,75.3344348 L98.4284443,71.4307826 L110.848581,71.4307826 L110.848581,75.3344348 Z M136.325784,85.956 L136.325784,82.0977391 C139.267794,81.7346087 141.648699,80.7965217 143.4685,79.2834783 C145.50061,77.5888696 146.516665,75.3495652 146.516665,72.5655652 C146.516665,69.7210435 145.43995,67.4212174 143.28652,65.666087 C141.830679,64.5161739 139.510434,63.3813913 136.325784,62.2617391 L136.325784,62.2617391 L136.325784,52.8203478 C137.902944,53.0926957 139.131309,53.7130435 140.010879,54.6813913 C140.647809,55.4076522 141.208914,56.4970435 141.694194,57.9495652 L141.694194,57.9495652 L145.879735,56.2246957 C145.121485,54.045913 144.150925,52.3815652 142.968055,51.2316522 C141.360564,49.6883478 139.146474,48.7653913 136.325784,48.4627826 L136.325784,48.4627826 L136.325784,44.4683478 L132.640688,44.4683478 L132.640688,48.4173913 C129.910988,48.6897391 127.742393,49.4916522 126.134903,50.8231304 C124.284772,52.3664348 123.359707,54.4998261 123.359707,57.2233043 C123.359707,59.6441739 124.330267,61.6262609 126.271388,63.1695652 C127.575578,64.1681739 129.698678,65.181913 132.640688,66.2107826 L132.640688,66.2107826 L132.640688,77.8309565 C129.547028,77.3165217 127.514918,75.1982609 126.544358,71.4761739 L126.544358,71.4761739 L122.449807,73.0648696 C123.814657,78.6328696 127.211618,81.6589565 132.640688,82.1431304 L132.640688,82.1431304 L132.640688,85.956 L136.325784,85.956 Z M132.640688,60.9907826 C129.486368,59.7198261 127.909208,58.464 127.909208,57.2233043 C127.909208,54.6813913 129.486368,53.1986087 132.640688,52.7749565 L132.640688,52.7749565 L132.640688,60.9907826 Z M136.325784,77.6947826 L136.325784,67.5725217 C140.056374,69.0553043 141.92167,70.7196522 141.92167,72.5655652 C141.92167,73.776 141.451554,74.8351304 140.511324,75.7429565 C139.540764,76.7415652 138.145584,77.3921739 136.325784,77.6947826 L136.325784,77.6947826 Z M157.480961,81.9161739 L157.480961,57.3594783 L167.580853,81.9161739 L171.902878,81.9161739 L182.002769,57.3594783 L182.002769,81.9161739 L186.597765,81.9161739 L186.597765,48.7351304 L180.728909,48.7351304 L169.764613,75.8337391 L158.754821,48.7351304 L152.885966,48.7351304 L152.885966,81.9161739 L157.480961,81.9161739 Z M218.080309,81.9161739 L218.080309,77.5586087 L198.017011,77.5586087 L198.017011,67.1186087 L216.215013,67.1186087 L216.215013,62.7610435 L198.017011,62.7610435 L198.017011,53.0473043 L218.080309,53.0473043 L218.080309,48.7351304 L193.422016,48.7351304 L193.422016,81.9161739 L218.080309,81.9161739 Z M229.044605,81.9161739 L229.044605,57.3594783 L239.144496,81.9161739 L243.466522,81.9161739 L253.566413,57.3594783 L253.566413,81.9161739 L258.161408,81.9161739 L258.161408,48.7351304 L252.292553,48.7351304 L241.328256,75.8337391 L230.318465,48.7351304 L224.449609,48.7351304 L224.449609,81.9161739 L229.044605,81.9161739 Z M289.643952,81.9161739 L289.643952,77.5586087 L269.580655,77.5586087 L269.580655,67.1186087 L287.778657,67.1186087 L287.778657,62.7610435 L269.580655,62.7610435 L269.580655,53.0473043 L289.643952,53.0473043 L289.643952,48.7351304 L264.985659,48.7351304 L264.985659,81.9161739 L289.643952,81.9161739 Z M300.107803,70.7045217 C301.745624,68.9493913 302.792009,67.164 303.246959,65.3483478 C303.580589,64.4405217 303.808064,62.8518261 303.929384,60.5822609 L303.929384,60.5822609 L307.205024,60.5822609 L307.205024,70.5229565 L311.117595,70.5229565 L311.117595,45.1492174 L307.205024,45.1492174 L307.205024,51.5493913 L302.792009,51.5493913 L302.792009,46.4201739 L299.061418,46.4201739 L299.061418,54.7267826 L307.205024,54.7267826 L307.205024,57.2233043 L297.105133,57.2233043 L297.105133,60.5822609 L300.198793,60.5822609 C300.047143,62.3676522 299.819668,63.7445217 299.516368,64.7128696 C299.061418,65.8627826 298.197013,67.0278261 296.923153,68.208 L296.923153,68.208 L300.107803,70.7045217 Z M328.724162,69.7966957 C330.392312,69.7966957 331.529687,69.5243478 332.136287,68.9796522 C332.833877,68.4652174 333.182672,67.5573913 333.182672,66.2561739 L333.182672,66.2561739 L333.182672,62.3525217 L336.731283,62.3525217 L336.731283,59.3566957 L333.182672,59.3566957 L333.182672,55.6346087 L329.270102,55.6346087 L329.270102,59.3566957 L316.940955,59.3566957 C323.188936,57.873913 327.389642,56.3911304 329.543072,54.9083478 C331.635842,53.6676522 333.501137,51.8973913 335.138958,49.5975652 L335.138958,49.5975652 L335.138958,47.1010435 L323.537731,47.1010435 C323.932021,46.6168696 324.295981,46.0873043 324.629611,45.5123478 L324.629611,45.5123478 L320.899021,45.1492174 C319.898131,46.389913 318.821416,47.328 317.668875,47.9634783 C316.213035,48.8107826 314.393235,49.5975652 312.209475,50.3238261 L312.209475,50.3238261 L314.52972,53.138087 C314.92401,52.9867826 315.333465,52.8052174 315.758085,52.5933913 C316.334355,53.5012174 316.910625,54.4846957 317.486895,55.5438261 C316.152375,55.8161739 314.68137,56.0885217 313.07388,56.3608696 L313.07388,56.3608696 L314.302245,59.3566957 L312.70992,59.3566957 L312.70992,62.3525217 L318.032835,62.3525217 L316.304025,63.9866087 C318.366466,65.4391304 319.958791,66.7857391 321.081001,68.0264348 L321.081001,68.0264348 L323.765206,65.3937391 C322.642996,64.3951304 321.323641,63.3813913 319.807141,62.3525217 L319.807141,62.3525217 L329.270102,62.3525217 L329.270102,65.7568696 C329.270102,66.3318261 328.739327,66.6193043 327.677777,66.6193043 C326.919527,66.6193043 325.964131,66.4982609 324.811591,66.2561739 L324.811591,66.2561739 L325.539511,69.7966957 L328.724162,69.7966957 Z M320.717041,54.8175652 C320.049781,53.5768696 319.306696,52.3815652 318.487786,51.2316522 C319.185376,50.8382609 319.837471,50.4146087 320.444071,49.9606957 L320.444071,49.9606957 L320.671546,49.9606957 C321.520786,51.2316522 322.324531,52.6387826 323.082781,54.182087 C322.385191,54.393913 321.596611,54.6057391 320.717041,54.8175652 Z M326.085451,53.0473043 C325.569841,52.0184348 324.978406,50.9895652 324.311146,49.9606957 L324.311146,49.9606957 L330.498467,49.9606957 C329.012297,51.3526957 327.541292,52.3815652 326.085451,53.0473043 Z M334.593017,86.6822609 L336.913263,82.7786087 C332.242442,81.8405217 328.511852,80.6452174 325.721491,79.1926957 C323.962351,78.2848696 322.567171,77.1652174 321.535951,75.8337391 L321.535951,75.8337391 L336.003363,75.8337391 L336.003363,72.2932174 L326.449412,72.2932174 L327.131837,71.6123478 C325.918636,70.5229565 324.432466,69.4486957 322.673326,68.3895652 L322.673326,68.3895652 L320.353081,70.5229565 C321.232651,71.1281739 322.021231,71.7182609 322.718821,72.2932174 L322.718821,72.2932174 L317.98734,72.2932174 C318.169321,71.1735652 318.260311,69.9328696 318.260311,68.5711304 L318.260311,68.5711304 L314.34774,68.208 C314.34774,69.7210435 314.19609,71.0827826 313.89279,72.2932174 L313.89279,72.2932174 L296.923153,72.2932174 L296.923153,75.8337391 L312.25497,75.8337391 C311.04177,77.4073043 309.540434,78.5874783 307.750964,79.3742609 C305.233574,80.5241739 301.381663,81.7194783 296.195233,82.9601739 L296.195233,82.9601739 L299.061418,86.6822609 C303.792899,85.3507826 307.356674,84.0646957 309.752744,82.824 C312.694755,81.432 314.969505,79.4045217 316.576995,76.7415652 C316.728645,76.4692174 316.880295,76.1666087 317.031945,75.8337391 L317.031945,75.8337391 L317.25942,75.8337391 C318.320971,77.952 320.004286,79.797913 322.309366,81.3714783 C325.008736,83.3081739 329.103287,85.0784348 334.593017,86.6822609 L334.593017,86.6822609 Z M384.319058,58.4488696 L384.319058,49.5975652 L376.402927,49.5975652 C377.494808,48.5686957 378.359213,47.4490435 378.996143,46.2386087 L378.996143,46.2386087 L374.355652,45.693913 C373.809712,47.0556522 372.990802,48.3568696 371.898922,49.5975652 L371.898922,49.5975652 L366.348531,49.5975652 L366.348531,44.4683478 L361.935516,44.4683478 L361.935516,49.5975652 L356.294135,49.5975652 C355.475225,48.1450435 354.625985,46.8438261 353.746415,45.693913 L353.746415,45.693913 L349.287904,46.2386087 C350.258464,47.2977391 351.122869,48.4173913 351.88112,49.5975652 L351.88112,49.5975652 L343.964989,49.5975652 L343.964989,58.3126957 L348.241519,58.3126957 L348.241519,52.7749565 L380.042528,52.7749565 L380.042528,58.4488696 L384.319058,58.4488696 Z M377.722283,62.1709565 L377.722283,54.7267826 L350.743744,54.7267826 L350.743744,62.1709565 L377.722283,62.1709565 Z M373.809712,59.5382609 L354.656315,59.5382609 L354.656315,57.4048696 L373.809712,57.4048696 L373.809712,59.5382609 Z M380.224508,80.4636522 L380.224508,63.9866087 L347.877559,63.9866087 L347.877559,80.4636522 L380.224508,80.4636522 Z M376.129957,68.5711304 L351.97211,68.5711304 L351.97211,66.8008696 L376.129957,66.8008696 L376.129957,68.5711304 Z M376.129957,73.0194783 L351.97211,73.0194783 L351.97211,71.0676522 L376.129957,71.0676522 L376.129957,73.0194783 Z M376.129957,77.604 L351.97211,77.604 L351.97211,75.4706087 L376.129957,75.4706087 L376.129957,77.604 Z M345.557314,86.6822609 C348.893614,86.2586087 351.653644,85.850087 353.837405,85.4566957 C355.717865,85.1238261 357.88646,84.5791304 360.343191,83.8226087 L360.343191,83.8226087 L358.204925,81.0083478 C356.415455,81.432 354.36818,81.7951304 352.0631,82.0977391 C349.606369,82.4306087 346.725019,82.718087 343.419048,82.9601739 L343.419048,82.9601739 L345.557314,86.6822609 Z M383.090693,87 L384.501038,83.277913 C379.375268,82.2490435 374.461807,81.4925217 369.760657,81.0083478 L369.760657,81.0083478 L368.122836,84.1857391 C373.339597,84.8212174 378.328883,85.7593043 383.090693,87 L383.090693,87 Z" id="以TPEG積分限時兌換領$MEME獎賞备份" fill="#FFE958"></path>
            </g>
        </g>
    </g>
</svg>