<svg width="24" height="24" viewBox="0 0 24 24" fill="white" xmlns="http://www.w3.org/2000/svg">
<path d="M3.00406 3H8.23955L12.7826 9.61352C12.7829 9.61396 12.7833 9.61432 12.7838 9.61458C12.7842 9.61484 12.7847 9.61499 12.7853 9.61503C12.7858 9.61507 12.7863 9.61498 12.7868 9.61479C12.7873 9.61459 12.7878 9.61428 12.7881 9.61389L18.4765 3H20.0205C20.0206 3.00148 20.0219 3.00238 20.0242 3.0027C20.026 3.00303 20.0263 3.00389 20.0251 3.00529L13.4795 10.6158C13.4782 10.6173 13.4775 10.6192 13.4774 10.6211C13.4772 10.6231 13.4778 10.625 13.4789 10.6266L20.5986 20.9907C20.5991 20.9914 20.5993 20.9922 20.5994 20.993C20.5994 20.9938 20.5992 20.9947 20.5988 20.9954C20.5984 20.9962 20.5979 20.9968 20.5971 20.9972C20.5964 20.9977 20.5956 20.9979 20.5948 20.9979H15.3684C15.3659 20.9979 15.3635 20.9973 15.3613 20.9962C15.3591 20.995 15.3572 20.9934 15.3558 20.9914L10.5632 14.0147C10.5612 14.0116 10.5589 14.0115 10.5566 14.0143L4.55299 20.9947C4.55215 20.9957 4.55109 20.9965 4.5499 20.9971C4.54871 20.9976 4.54742 20.9979 4.54611 20.9979H3.0027C3.00219 20.9979 3.00169 20.9977 3.00126 20.9975C3.00083 20.9972 3.00048 20.9968 3.00026 20.9964C3.00004 20.9959 2.99996 20.9954 3.00002 20.9949C3.00008 20.9944 3.00029 20.994 3.00061 20.9936L9.8662 13.0114C9.86742 13.0099 9.86815 13.0081 9.86826 13.0062C9.86837 13.0044 9.86786 13.0025 9.86681 13.0009C7.57943 9.67119 5.29115 6.34008 3.00196 3.00762C3.0009 3.00607 3.00061 3.00471 3.0011 3.00357C3.00168 3.0025 3.00266 3.00131 3.00406 3ZM18.4687 19.8813C18.4695 19.8813 18.4702 19.8811 18.4709 19.8807C18.4715 19.8803 18.472 19.8797 18.4724 19.879C18.4727 19.8784 18.4729 19.8776 18.4729 19.8769C18.4728 19.8761 18.4726 19.8754 18.4721 19.8748L7.49681 4.17172C7.49643 4.17116 7.49591 4.17069 7.49531 4.17037C7.49471 4.17005 7.49404 4.16988 7.49336 4.16988H5.1182C5.11744 4.16988 5.1167 4.17009 5.11605 4.17048C5.11541 4.17088 5.11488 4.17144 5.11453 4.1721C5.11417 4.17277 5.11401 4.17353 5.11405 4.17428C5.11409 4.17504 5.11433 4.17577 5.11475 4.17639L16.0901 19.8795C16.0905 19.8801 16.091 19.8806 16.0916 19.8809C16.0922 19.8812 16.0929 19.8814 16.0935 19.8814L18.4687 19.8813Z" fill="white"/>
</svg>
