<svg xmlns="http://www.w3.org/2000/svg" width="20" height="15" viewBox="0 0 300 225">
  <rect width="300" height="225" fill="#00785E"/>
  <path d="M150 60c13.6 0 24.6 11 24.6 24.6s-11 24.6-24.6 24.6-24.6-11-24.6-24.6S136.4 60 150 60z" fill="#fff"/>
  <path d="M150 78c7.2 0 13.2 6 13.2 13.2S157.2 104.4 150 104.4 136.8 98.4 136.8 91.2 142.8 78 150 78z" fill="#00785E"/>
  <path d="M134.4 91.2c0 8.6 7 15.6 15.6 15.6s15.6-7 15.6-15.6H134.4z" fill="#00785E"/>
  <path d="M134.4 91.2c0 8.6 7 15.6 15.6 15.6s15.6-7 15.6-15.6h-31.2z" fill="none" stroke="#fff" stroke-width="3"/>
  <path d="M143.8 93.9c0 3.4 2.8 6.2 6.2 6.2s6.2-2.8 6.2-6.2" fill="#fff"/>
  <path d="M136.8 91.2c0 8.6 7 15.6 15.6 15.6s15.6-7 15.6-15.6H136.8z" fill="none" stroke="#fff" stroke-width="3"/>
  <path d="M136.8 91.2c0 8.6 7 15.6 15.6 15.6s15.6-7 15.6-15.6h-31.2z" fill="none" stroke="#fff" stroke-width="1.5"/>
  <path d="M148.8 101.8h2.4v-7.2h-2.4zM150 110.4h0c0 4.8 3.6 8.4 8.4 8.4s8.4-3.6 8.4-8.4" fill="#00785E"/>
  <path d="M150 110.4h0c0 4.8 3.6 8.4 8.4 8.4s8.4-3.6 8.4-8.4" fill="none" stroke="#fff" stroke-width="1.5"/>
  <path d="M150 110.4h0c0 4.8 3.6 8.4 8.4 8.4s8.4-3.6 8.4-8.4" fill="none" stroke="#fff" stroke-width="3"/>
  <path d="M150 110.4h0c0 4.8 3.6 8.4 8.4 8.4s8.4-3.6 8.4-8.4" fill="none" stroke="#fff" stroke-width="1"/>
  <g fill="#FFDE00">
    <path d="M150 34l3.75 11.6H165l-9.375 6.8L157.5 64.8 150 58.8 142.5 64.8l1.875-12.4L135 45.6h11.25z"/>
    <path d="M138 50l2.25 7h-7l5.75 4.2-2.25 7 5.75-4.2L147 64l-2.25-7 5.75-4.2h-7l2.25-7-2.25 7z"/>
    <path d="M162 50l2.25 7h-7l5.75 4.2-2.25 7 5.75-4.2L171 64l-2.25-7 5.75-4.2h-7l2.25-7-2.25 7z"/>
    <path d="M142 48l1.25 4h-4l3.25 2.4-1.25 4 3.25-2.4L147 60l-1.25-4 3.25-2.4h-4l1.25-4-1.25 4z"/>
    <path d="M158 48l1.25 4h-4l3.25 2.4-1.25 4 3.25-2.4L163 60l-1.25-4 3.25-2.4h-4l1.25-4-1.25 4z"/>
  </g>
</svg>
