<svg xmlns="http://www.w3.org/2000/svg" xmlns:xlink="http://www.w3.org/1999/xlink" version="1.1" id="Layer_1" shape-rendering="crispEdges" x="0px" y="0px" viewBox="0 0 15 15" style="enable-background:new 0 0 15 15;" xml:space="preserve">
<style type="text/css">
	.st0{fill:#451834;}
	.st1{fill:#A1472A;}
	.st2{fill:#FFE84F;}
	.st3{fill:#E39400;}
</style>
<g>
	<polygon class="st0" points="6,2 7,2 8,2 9,2 10,2 11,2 11,1 10,1 9,1 8,1 7,1 6,1 5,1 4,1 4,2 5,2  "/>
	<rect x="3" y="2" class="st0" width="1" height="1"/>
	<rect x="4" y="2" class="st1" width="1" height="1"/>
	<polygon class="st2" points="9,2 8,2 7,2 6,2 5,2 5,3 6,3 7,3 8,3 9,3 10,3 11,3 11,2 10,2  "/>
	<rect x="11" y="2" class="st0" width="1" height="1"/>
	<rect x="2" y="3" class="st0" width="1" height="1"/>
	<rect x="3" y="3" class="st1" width="1" height="1"/>
	<rect x="4" y="3" class="st2" width="1" height="1"/>
	<rect x="10" y="3" class="st1" width="1" height="1"/>
	<rect x="11" y="3" class="st2" width="1" height="1"/>
	<rect x="12" y="3" class="st0" width="1" height="1"/>
	<polygon class="st1" points="11,5 11,6 11,7 11,8 11,9 11,10 11,11 12,11 12,10 12,9 12,8 12,7 12,6 12,5 12,4 11,4  "/>
	<polygon class="st0" points="13,4 13,5 13,6 13,7 13,8 13,9 13,10 13,11 14,11 14,10 14,9 14,8 14,7 14,6 14,5 14,4  "/>
	<polygon class="st1" points="10,8 10,7 10,6 10,5 9,5 8,5 8,6 7,6 7,5 6,5 5,5 5,6 5,7 5,8 5,9 5,10 6,10 6,9 6,8 7,8 7,9 8,9 8,8    9,8 9,9 9,10 10,10 10,9  "/>
	<polygon class="st0" points="2,9 2,8 2,7 2,6 2,5 2,4 1,4 1,5 1,6 1,7 1,8 1,9 1,10 1,11 2,11 2,10  "/>
	<polygon class="st2" points="4,9 4,8 4,7 4,6 4,5 4,4 3,4 3,5 3,6 3,7 3,8 3,9 3,10 3,11 4,11 4,10  "/>
	<path class="st3" d="M11,9V8V7V6V5V4h-1V3H9H8H7H6H5v1H4v1v1v1v1v1v1v1h1v1h1h1h1h1h1v-1h1v-1V9z M9,10V9V8H8v1H7V8H6v1v1H5V9V8V7   V6V5h1h1v1h1V5h1h1v1v1v1v1v1H9z"/>
	<polygon class="st2" points="13,9 13,8 13,7 13,6 13,5 13,4 12,4 12,5 12,6 12,7 12,8 12,9 12,10 12,11 13,11 13,10  "/>
	<polygon class="st1" points="3,10 3,9 3,8 3,7 3,6 3,5 3,4 2,4 2,5 2,6 2,7 2,8 2,9 2,10 2,11 3,11  "/>
	<rect x="2" y="11" class="st0" width="1" height="1"/>
	<rect x="3" y="11" class="st1" width="1" height="1"/>
	<rect x="4" y="11" class="st2" width="1" height="1"/>
	<rect x="10" y="11" class="st1" width="1" height="1"/>
	<rect x="11" y="11" class="st2" width="1" height="1"/>
	<rect x="12" y="11" class="st0" width="1" height="1"/>
	<rect x="3" y="12" class="st0" width="1" height="1"/>
	<rect x="4" y="12" class="st1" width="1" height="1"/>
	<polygon class="st2" points="10,12 9,12 8,12 7,12 6,12 5,12 5,13 6,13 7,13 8,13 9,13 10,13 11,13 11,12  "/>
	<rect x="11" y="12" class="st0" width="1" height="1"/>
	<polygon class="st0" points="9,13 8,13 7,13 6,13 5,13 4,13 4,14 5,14 6,14 7,14 8,14 9,14 10,14 11,14 11,13 10,13  "/>
</g>
</svg>
