<svg width="198" height="14" viewBox="0 0 198 14" fill="none" xmlns="http://www.w3.org/2000/svg">
<path d="M5.30156 6.32C5.36556 6.576 5.39756 6.896 5.39756 7.28C5.39756 7.648 5.36556 7.968 5.30156 8.24H0.501563C0.437563 7.968 0.405563 7.648 0.405563 7.28C0.405563 6.896 0.437563 6.576 0.501563 6.32H5.30156ZM25.9603 2.48C26.0243 2.736 26.0563 3.056 26.0563 3.44C26.0563 3.808 26.0243 4.128 25.9603 4.4C26.0243 4.656 26.0563 4.976 26.0563 5.36C26.0563 5.728 26.0243 6.048 25.9603 6.32C26.0243 6.576 26.0563 6.896 26.0563 7.28C26.0563 7.648 26.0243 7.968 25.9603 8.24C26.0243 8.496 26.0563 8.816 26.0563 9.2C26.0563 9.568 26.0243 9.888 25.9603 10.16C26.0243 10.416 26.0563 10.736 26.0563 11.12C26.0563 11.488 26.0243 11.808 25.9603 12.08C26.0243 12.336 26.0563 12.656 26.0563 13.04C26.0563 13.408 26.0243 13.728 25.9603 14H24.0403C23.9763 13.728 23.9443 13.408 23.9443 13.04C23.9443 12.656 23.9763 12.336 24.0403 12.08C23.9763 11.808 23.9443 11.488 23.9443 11.12C23.9443 10.736 23.9763 10.416 24.0403 10.16C23.9763 9.888 23.9443 9.568 23.9443 9.2C23.9443 8.816 23.9763 8.496 24.0403 8.24C23.9763 7.968 23.9443 7.648 23.9443 7.28C23.9443 6.896 23.9763 6.576 24.0403 6.32C23.9763 6.048 23.9443 5.728 23.9443 5.36C23.9443 4.976 23.9763 4.656 24.0403 4.4H23.3203C23.3843 4.656 23.4163 4.976 23.4163 5.36C23.4163 5.728 23.3843 6.048 23.3203 6.32C23.3843 6.576 23.4163 6.896 23.4163 7.28C23.4163 7.648 23.3843 7.968 23.3203 8.24H22.8403C22.9043 8.496 22.9363 8.816 22.9363 9.2C22.9363 9.568 22.9043 9.888 22.8403 10.16C22.9043 10.416 22.9363 10.736 22.9363 11.12C22.9363 11.488 22.9043 11.808 22.8403 12.08H21.4003C21.3363 11.808 21.3043 11.488 21.3043 11.12C21.3043 10.736 21.3363 10.416 21.4003 10.16C21.3363 9.888 21.3043 9.568 21.3043 9.2C21.3043 8.816 21.3363 8.496 21.4003 8.24H20.9203C20.8563 7.968 20.8243 7.648 20.8243 7.28C20.8243 6.896 20.8563 6.576 20.9203 6.32C20.8563 6.048 20.8243 5.728 20.8243 5.36C20.8243 4.976 20.8563 4.656 20.9203 4.4H20.2003C20.2643 4.656 20.2963 4.976 20.2963 5.36C20.2963 5.728 20.2643 6.048 20.2003 6.32C20.2643 6.576 20.2963 6.896 20.2963 7.28C20.2963 7.648 20.2643 7.968 20.2003 8.24C20.2643 8.496 20.2963 8.816 20.2963 9.2C20.2963 9.568 20.2643 9.888 20.2003 10.16C20.2643 10.416 20.2963 10.736 20.2963 11.12C20.2963 11.488 20.2643 11.808 20.2003 12.08C20.2643 12.336 20.2963 12.656 20.2963 13.04C20.2963 13.408 20.2643 13.728 20.2003 14H18.2803C18.2163 13.728 18.1843 13.408 18.1843 13.04C18.1843 12.656 18.2163 12.336 18.2803 12.08C18.2163 11.808 18.1843 11.488 18.1843 11.12C18.1843 10.736 18.2163 10.416 18.2803 10.16C18.2163 9.888 18.1843 9.568 18.1843 9.2C18.1843 8.816 18.2163 8.496 18.2803 8.24C18.2163 7.968 18.1843 7.648 18.1843 7.28C18.1843 6.896 18.2163 6.576 18.2803 6.32C18.2163 6.048 18.1843 5.728 18.1843 5.36C18.1843 4.976 18.2163 4.656 18.2803 4.4C18.2163 4.128 18.1843 3.808 18.1843 3.44C18.1843 3.056 18.2163 2.736 18.2803 2.48C18.2163 2.208 18.1843 1.888 18.1843 1.52C18.1843 1.136 18.2163 0.816 18.2803 0.56H20.6803C20.7443 0.816 20.7763 1.136 20.7763 1.52C20.7763 1.888 20.7443 2.208 20.6803 2.48H21.4003C21.4643 2.736 21.4963 3.056 21.4963 3.44C21.4963 3.808 21.4643 4.128 21.4003 4.4H21.7603C21.8243 4.656 21.8563 4.976 21.8563 5.36C21.8563 5.728 21.8243 6.048 21.7603 6.32H22.4803C22.4163 6.048 22.3843 5.728 22.3843 5.36C22.3843 4.976 22.4163 4.656 22.4803 4.4H22.8403C22.7763 4.128 22.7443 3.808 22.7443 3.44C22.7443 3.056 22.7763 2.736 22.8403 2.48H23.5603C23.4963 2.208 23.4643 1.888 23.4643 1.52C23.4643 1.136 23.4963 0.816 23.5603 0.56H25.9603C26.0243 0.816 26.0563 1.136 26.0563 1.52C26.0563 1.888 26.0243 2.208 25.9603 2.48ZM30.7697 8.24C30.8337 8.496 30.8657 8.816 30.8657 9.2C30.8657 9.568 30.8337 9.888 30.7697 10.16C30.8337 10.416 30.8657 10.736 30.8657 11.12C30.8657 11.488 30.8337 11.808 30.7697 12.08H34.6097C34.6737 12.336 34.7057 12.656 34.7057 13.04C34.7057 13.408 34.6737 13.728 34.6097 14H28.8497C28.7857 13.728 28.7537 13.408 28.7537 13.04C28.7537 12.656 28.7857 12.336 28.8497 12.08C28.7857 11.808 28.7537 11.488 28.7537 11.12C28.7537 10.736 28.7857 10.416 28.8497 10.16C28.7857 9.888 28.7537 9.568 28.7537 9.2C28.7537 8.816 28.7857 8.496 28.8497 8.24C28.7857 7.968 28.7537 7.648 28.7537 7.28C28.7537 6.896 28.7857 6.576 28.8497 6.32C28.7857 6.048 28.7537 5.728 28.7537 5.36C28.7537 4.976 28.7857 4.656 28.8497 4.4C28.7857 4.128 28.7537 3.808 28.7537 3.44C28.7537 3.056 28.7857 2.736 28.8497 2.48C28.7857 2.208 28.7537 1.888 28.7537 1.52C28.7537 1.136 28.7857 0.816 28.8497 0.56H34.6097C34.6737 0.816 34.7057 1.136 34.7057 1.52C34.7057 1.888 34.6737 2.208 34.6097 2.48H30.7697C30.8337 2.736 30.8657 3.056 30.8657 3.44C30.8657 3.808 30.8337 4.128 30.7697 4.4C30.8337 4.656 30.8657 4.976 30.8657 5.36C30.8657 5.728 30.8337 6.048 30.7697 6.32H34.6097C34.6737 6.576 34.7057 6.896 34.7057 7.28C34.7057 7.648 34.6737 7.968 34.6097 8.24H30.7697ZM45.1791 2.48C45.2431 2.736 45.2751 3.056 45.2751 3.44C45.2751 3.808 45.2431 4.128 45.1791 4.4C45.2431 4.656 45.2751 4.976 45.2751 5.36C45.2751 5.728 45.2431 6.048 45.1791 6.32C45.2431 6.576 45.2751 6.896 45.2751 7.28C45.2751 7.648 45.2431 7.968 45.1791 8.24C45.2431 8.496 45.2751 8.816 45.2751 9.2C45.2751 9.568 45.2431 9.888 45.1791 10.16C45.2431 10.416 45.2751 10.736 45.2751 11.12C45.2751 11.488 45.2431 11.808 45.1791 12.08C45.2431 12.336 45.2751 12.656 45.2751 13.04C45.2751 13.408 45.2431 13.728 45.1791 14H43.2591C43.1951 13.728 43.1631 13.408 43.1631 13.04C43.1631 12.656 43.1951 12.336 43.2591 12.08C43.1951 11.808 43.1631 11.488 43.1631 11.12C43.1631 10.736 43.1951 10.416 43.2591 10.16C43.1951 9.888 43.1631 9.568 43.1631 9.2C43.1631 8.816 43.1951 8.496 43.2591 8.24C43.1951 7.968 43.1631 7.648 43.1631 7.28C43.1631 6.896 43.1951 6.576 43.2591 6.32C43.1951 6.048 43.1631 5.728 43.1631 5.36C43.1631 4.976 43.1951 4.656 43.2591 4.4H42.5391C42.6031 4.656 42.6351 4.976 42.6351 5.36C42.6351 5.728 42.6031 6.048 42.5391 6.32C42.6031 6.576 42.6351 6.896 42.6351 7.28C42.6351 7.648 42.6031 7.968 42.5391 8.24H42.0591C42.1231 8.496 42.1551 8.816 42.1551 9.2C42.1551 9.568 42.1231 9.888 42.0591 10.16C42.1231 10.416 42.1551 10.736 42.1551 11.12C42.1551 11.488 42.1231 11.808 42.0591 12.08H40.6191C40.5551 11.808 40.5231 11.488 40.5231 11.12C40.5231 10.736 40.5551 10.416 40.6191 10.16C40.5551 9.888 40.5231 9.568 40.5231 9.2C40.5231 8.816 40.5551 8.496 40.6191 8.24H40.1391C40.0751 7.968 40.0431 7.648 40.0431 7.28C40.0431 6.896 40.0751 6.576 40.1391 6.32C40.0751 6.048 40.0431 5.728 40.0431 5.36C40.0431 4.976 40.0751 4.656 40.1391 4.4H39.4191C39.4831 4.656 39.5151 4.976 39.5151 5.36C39.5151 5.728 39.4831 6.048 39.4191 6.32C39.4831 6.576 39.5151 6.896 39.5151 7.28C39.5151 7.648 39.4831 7.968 39.4191 8.24C39.4831 8.496 39.5151 8.816 39.5151 9.2C39.5151 9.568 39.4831 9.888 39.4191 10.16C39.4831 10.416 39.5151 10.736 39.5151 11.12C39.5151 11.488 39.4831 11.808 39.4191 12.08C39.4831 12.336 39.5151 12.656 39.5151 13.04C39.5151 13.408 39.4831 13.728 39.4191 14H37.4991C37.4351 13.728 37.4031 13.408 37.4031 13.04C37.4031 12.656 37.4351 12.336 37.4991 12.08C37.4351 11.808 37.4031 11.488 37.4031 11.12C37.4031 10.736 37.4351 10.416 37.4991 10.16C37.4351 9.888 37.4031 9.568 37.4031 9.2C37.4031 8.816 37.4351 8.496 37.4991 8.24C37.4351 7.968 37.4031 7.648 37.4031 7.28C37.4031 6.896 37.4351 6.576 37.4991 6.32C37.4351 6.048 37.4031 5.728 37.4031 5.36C37.4031 4.976 37.4351 4.656 37.4991 4.4C37.4351 4.128 37.4031 3.808 37.4031 3.44C37.4031 3.056 37.4351 2.736 37.4991 2.48C37.4351 2.208 37.4031 1.888 37.4031 1.52C37.4031 1.136 37.4351 0.816 37.4991 0.56H39.8991C39.9631 0.816 39.9951 1.136 39.9951 1.52C39.9951 1.888 39.9631 2.208 39.8991 2.48H40.6191C40.6831 2.736 40.7151 3.056 40.7151 3.44C40.7151 3.808 40.6831 4.128 40.6191 4.4H40.9791C41.0431 4.656 41.0751 4.976 41.0751 5.36C41.0751 5.728 41.0431 6.048 40.9791 6.32H41.6991C41.6351 6.048 41.6031 5.728 41.6031 5.36C41.6031 4.976 41.6351 4.656 41.6991 4.4H42.0591C41.9951 4.128 41.9631 3.808 41.9631 3.44C41.9631 3.056 41.9951 2.736 42.0591 2.48H42.7791C42.7151 2.208 42.6831 1.888 42.6831 1.52C42.6831 1.136 42.7151 0.816 42.7791 0.56H45.1791C45.2431 0.816 45.2751 1.136 45.2751 1.52C45.2751 1.888 45.2431 2.208 45.1791 2.48ZM49.9884 8.24C50.0524 8.496 50.0844 8.816 50.0844 9.2C50.0844 9.568 50.0524 9.888 49.9884 10.16C50.0524 10.416 50.0844 10.736 50.0844 11.12C50.0844 11.488 50.0524 11.808 49.9884 12.08H53.8284C53.8924 12.336 53.9244 12.656 53.9244 13.04C53.9244 13.408 53.8924 13.728 53.8284 14H48.0684C48.0044 13.728 47.9724 13.408 47.9724 13.04C47.9724 12.656 48.0044 12.336 48.0684 12.08C48.0044 11.808 47.9724 11.488 47.9724 11.12C47.9724 10.736 48.0044 10.416 48.0684 10.16C48.0044 9.888 47.9724 9.568 47.9724 9.2C47.9724 8.816 48.0044 8.496 48.0684 8.24C48.0044 7.968 47.9724 7.648 47.9724 7.28C47.9724 6.896 48.0044 6.576 48.0684 6.32C48.0044 6.048 47.9724 5.728 47.9724 5.36C47.9724 4.976 48.0044 4.656 48.0684 4.4C48.0044 4.128 47.9724 3.808 47.9724 3.44C47.9724 3.056 48.0044 2.736 48.0684 2.48C48.0044 2.208 47.9724 1.888 47.9724 1.52C47.9724 1.136 48.0044 0.816 48.0684 0.56H53.8284C53.8924 0.816 53.9244 1.136 53.9244 1.52C53.9244 1.888 53.8924 2.208 53.8284 2.48H49.9884C50.0524 2.736 50.0844 3.056 50.0844 3.44C50.0844 3.808 50.0524 4.128 49.9884 4.4C50.0524 4.656 50.0844 4.976 50.0844 5.36C50.0844 5.728 50.0524 6.048 49.9884 6.32H53.8284C53.8924 6.576 53.9244 6.896 53.9244 7.28C53.9244 7.648 53.8924 7.968 53.8284 8.24H49.9884ZM64.3978 12.08C64.4618 12.336 64.4938 12.656 64.4938 13.04C64.4938 13.408 64.4618 13.728 64.3978 14H57.6778C57.6138 13.728 57.5818 13.408 57.5818 13.04C57.5818 12.656 57.6138 12.336 57.6778 12.08C57.6138 11.808 57.5818 11.488 57.5818 11.12C57.5818 10.736 57.6138 10.416 57.6778 10.16C57.6138 9.888 57.5818 9.568 57.5818 9.2C57.5818 8.816 57.6138 8.496 57.6778 8.24C57.6138 7.968 57.5818 7.648 57.5818 7.28C57.5818 6.896 57.6138 6.576 57.6778 6.32C57.6138 6.048 57.5818 5.728 57.5818 5.36C57.5818 4.976 57.6138 4.656 57.6778 4.4C57.6138 4.128 57.5818 3.808 57.5818 3.44C57.5818 3.056 57.6138 2.736 57.6778 2.48C57.6138 2.208 57.5818 1.888 57.5818 1.52C57.5818 1.136 57.6138 0.816 57.6778 0.56H59.5978C59.6618 0.816 59.6938 1.136 59.6938 1.52C59.6938 1.888 59.6618 2.208 59.5978 2.48C59.6618 2.736 59.6938 3.056 59.6938 3.44C59.6938 3.808 59.6618 4.128 59.5978 4.4C59.6618 4.656 59.6938 4.976 59.6938 5.36C59.6938 5.728 59.6618 6.048 59.5978 6.32C59.6618 6.576 59.6938 6.896 59.6938 7.28C59.6938 7.648 59.6618 7.968 59.5978 8.24C59.6618 8.496 59.6938 8.816 59.6938 9.2C59.6938 9.568 59.6618 9.888 59.5978 10.16C59.6618 10.416 59.6938 10.736 59.6938 11.12C59.6938 11.488 59.6618 11.808 59.5978 12.08H64.3978ZM74.1032 11.12C74.1032 11.488 74.0712 11.808 74.0072 12.08C74.0712 12.336 74.1032 12.656 74.1032 13.04C74.1032 13.408 74.0712 13.728 74.0072 14H72.0872C72.0232 13.728 71.9912 13.408 71.9912 13.04C71.9912 12.656 72.0232 12.336 72.0872 12.08C72.0232 11.808 71.9912 11.488 71.9912 11.12C71.9912 10.736 72.0232 10.416 72.0872 10.16H68.2472C68.3112 10.416 68.3432 10.736 68.3432 11.12C68.3432 11.488 68.3112 11.808 68.2472 12.08C68.3112 12.336 68.3432 12.656 68.3432 13.04C68.3432 13.408 68.3112 13.728 68.2472 14H66.3272C66.2632 13.728 66.2312 13.408 66.2312 13.04C66.2312 12.656 66.2632 12.336 66.3272 12.08C66.2632 11.808 66.2312 11.488 66.2312 11.12C66.2312 10.736 66.2632 10.416 66.3272 10.16H67.0472C66.9832 9.888 66.9512 9.568 66.9512 9.2C66.9512 8.816 66.9832 8.496 67.0472 8.24C66.9832 7.968 66.9512 7.648 66.9512 7.28C66.9512 6.896 66.9832 6.576 67.0472 6.32H67.5272C67.4632 6.048 67.4312 5.728 67.4312 5.36C67.4312 4.976 67.4632 4.656 67.5272 4.4H68.2472C68.1832 4.128 68.1512 3.808 68.1512 3.44C68.1512 3.056 68.1832 2.736 68.2472 2.48H68.7272C68.6632 2.208 68.6312 1.888 68.6312 1.52C68.6312 1.136 68.6632 0.816 68.7272 0.56H71.6072C71.6712 0.816 71.7032 1.136 71.7032 1.52C71.7032 1.888 71.6712 2.208 71.6072 2.48H72.0872C72.1512 2.736 72.1832 3.056 72.1832 3.44C72.1832 3.808 72.1512 4.128 72.0872 4.4H72.8072C72.8712 4.656 72.9032 4.976 72.9032 5.36C72.9032 5.728 72.8712 6.048 72.8072 6.32H73.2872C73.3512 6.576 73.3832 6.896 73.3832 7.28C73.3832 7.648 73.3512 7.968 73.2872 8.24C73.3512 8.496 73.3832 8.816 73.3832 9.2C73.3832 9.568 73.3512 9.888 73.2872 10.16H74.0072C74.0712 10.416 74.1032 10.736 74.1032 11.12ZM71.3672 8.24C71.3032 7.968 71.2712 7.648 71.2712 7.28C71.2712 6.896 71.3032 6.576 71.3672 6.32H70.8872C70.8232 6.048 70.7912 5.728 70.7912 5.36C70.7912 4.976 70.8232 4.656 70.8872 4.4H69.4472C69.5112 4.656 69.5432 4.976 69.5432 5.36C69.5432 5.728 69.5112 6.048 69.4472 6.32H68.9672C69.0312 6.576 69.0632 6.896 69.0632 7.28C69.0632 7.648 69.0312 7.968 68.9672 8.24H71.3672ZM83.6166 2.48C83.6806 2.736 83.7126 3.056 83.7126 3.44C83.7126 3.808 83.6806 4.128 83.6166 4.4C83.6806 4.656 83.7126 4.976 83.7126 5.36C83.7126 5.728 83.6806 6.048 83.6166 6.32C83.6806 6.576 83.7126 6.896 83.7126 7.28C83.7126 7.648 83.6806 7.968 83.6166 8.24C83.6806 8.496 83.7126 8.816 83.7126 9.2C83.7126 9.568 83.6806 9.888 83.6166 10.16C83.6806 10.416 83.7126 10.736 83.7126 11.12C83.7126 11.488 83.6806 11.808 83.6166 12.08C83.6806 12.336 83.7126 12.656 83.7126 13.04C83.7126 13.408 83.6806 13.728 83.6166 14H81.6966C81.6326 13.728 81.6006 13.408 81.6006 13.04C81.6006 12.656 81.6326 12.336 81.6966 12.08H80.4966C80.4326 11.808 80.4006 11.488 80.4006 11.12C80.4006 10.736 80.4326 10.416 80.4966 10.16H79.7766C79.7126 9.888 79.6806 9.568 79.6806 9.2C79.6806 8.816 79.7126 8.496 79.7766 8.24H78.8166C78.7526 7.968 78.7206 7.648 78.7206 7.28C78.7206 6.896 78.7526 6.576 78.8166 6.32H77.8566C77.9206 6.576 77.9526 6.896 77.9526 7.28C77.9526 7.648 77.9206 7.968 77.8566 8.24C77.9206 8.496 77.9526 8.816 77.9526 9.2C77.9526 9.568 77.9206 9.888 77.8566 10.16C77.9206 10.416 77.9526 10.736 77.9526 11.12C77.9526 11.488 77.9206 11.808 77.8566 12.08C77.9206 12.336 77.9526 12.656 77.9526 13.04C77.9526 13.408 77.9206 13.728 77.8566 14H75.9366C75.8726 13.728 75.8406 13.408 75.8406 13.04C75.8406 12.656 75.8726 12.336 75.9366 12.08C75.8726 11.808 75.8406 11.488 75.8406 11.12C75.8406 10.736 75.8726 10.416 75.9366 10.16C75.8726 9.888 75.8406 9.568 75.8406 9.2C75.8406 8.816 75.8726 8.496 75.9366 8.24C75.8726 7.968 75.8406 7.648 75.8406 7.28C75.8406 6.896 75.8726 6.576 75.9366 6.32C75.8726 6.048 75.8406 5.728 75.8406 5.36C75.8406 4.976 75.8726 4.656 75.9366 4.4C75.8726 4.128 75.8406 3.808 75.8406 3.44C75.8406 3.056 75.8726 2.736 75.9366 2.48C75.8726 2.208 75.8406 1.888 75.8406 1.52C75.8406 1.136 75.8726 0.816 75.9366 0.56H78.3366C78.4006 0.816 78.4326 1.136 78.4326 1.52C78.4326 1.888 78.4006 2.208 78.3366 2.48H79.0566C79.1206 2.736 79.1526 3.056 79.1526 3.44C79.1526 3.808 79.1206 4.128 79.0566 4.4H79.7766C79.8406 4.656 79.8726 4.976 79.8726 5.36C79.8726 5.728 79.8406 6.048 79.7766 6.32H80.7366C80.8006 6.576 80.8326 6.896 80.8326 7.28C80.8326 7.648 80.8006 7.968 80.7366 8.24H81.6966C81.6326 7.968 81.6006 7.648 81.6006 7.28C81.6006 6.896 81.6326 6.576 81.6966 6.32C81.6326 6.048 81.6006 5.728 81.6006 5.36C81.6006 4.976 81.6326 4.656 81.6966 4.4C81.6326 4.128 81.6006 3.808 81.6006 3.44C81.6006 3.056 81.6326 2.736 81.6966 2.48C81.6326 2.208 81.6006 1.888 81.6006 1.52C81.6006 1.136 81.6326 0.816 81.6966 0.56H83.6166C83.6806 0.816 83.7126 1.136 83.7126 1.52C83.7126 1.888 83.6806 2.208 83.6166 2.48ZM93.2259 6.32C93.2899 6.576 93.3219 6.896 93.3219 7.28C93.3219 7.648 93.2899 7.968 93.2259 8.24C93.2899 8.496 93.3219 8.816 93.3219 9.2C93.3219 9.568 93.2899 9.888 93.2259 10.16H92.2659C92.3299 10.416 92.3619 10.736 92.3619 11.12C92.3619 11.488 92.3299 11.808 92.2659 12.08H91.3059C91.3699 12.336 91.4019 12.656 91.4019 13.04C91.4019 13.408 91.3699 13.728 91.3059 14H85.5459C85.4819 13.728 85.4499 13.408 85.4499 13.04C85.4499 12.656 85.4819 12.336 85.5459 12.08C85.4819 11.808 85.4499 11.488 85.4499 11.12C85.4499 10.736 85.4819 10.416 85.5459 10.16C85.4819 9.888 85.4499 9.568 85.4499 9.2C85.4499 8.816 85.4819 8.496 85.5459 8.24C85.4819 7.968 85.4499 7.648 85.4499 7.28C85.4499 6.896 85.4819 6.576 85.5459 6.32C85.4819 6.048 85.4499 5.728 85.4499 5.36C85.4499 4.976 85.4819 4.656 85.5459 4.4C85.4819 4.128 85.4499 3.808 85.4499 3.44C85.4499 3.056 85.4819 2.736 85.5459 2.48C85.4819 2.208 85.4499 1.888 85.4499 1.52C85.4499 1.136 85.4819 0.816 85.5459 0.56H91.3059C91.3699 0.816 91.4019 1.136 91.4019 1.52C91.4019 1.888 91.3699 2.208 91.3059 2.48H92.2659C92.3299 2.736 92.3619 3.056 92.3619 3.44C92.3619 3.808 92.3299 4.128 92.2659 4.4H93.2259C93.2899 4.656 93.3219 4.976 93.3219 5.36C93.3219 5.728 93.2899 6.048 93.2259 6.32ZM91.3059 10.16C91.2419 9.888 91.2099 9.568 91.2099 9.2C91.2099 8.816 91.2419 8.496 91.3059 8.24C91.2419 7.968 91.2099 7.648 91.2099 7.28C91.2099 6.896 91.2419 6.576 91.3059 6.32C91.2419 6.048 91.2099 5.728 91.2099 5.36C91.2099 4.976 91.2419 4.656 91.3059 4.4H90.3459C90.2819 4.128 90.2499 3.808 90.2499 3.44C90.2499 3.056 90.2819 2.736 90.3459 2.48H87.4659C87.5299 2.736 87.5619 3.056 87.5619 3.44C87.5619 3.808 87.5299 4.128 87.4659 4.4C87.5299 4.656 87.5619 4.976 87.5619 5.36C87.5619 5.728 87.5299 6.048 87.4659 6.32C87.5299 6.576 87.5619 6.896 87.5619 7.28C87.5619 7.648 87.5299 7.968 87.4659 8.24C87.5299 8.496 87.5619 8.816 87.5619 9.2C87.5619 9.568 87.5299 9.888 87.4659 10.16C87.5299 10.416 87.5619 10.736 87.5619 11.12C87.5619 11.488 87.5299 11.808 87.4659 12.08H90.3459C90.2819 11.808 90.2499 11.488 90.2499 11.12C90.2499 10.736 90.2819 10.416 90.3459 10.16H91.3059ZM112.541 3.44C112.541 3.808 112.509 4.128 112.445 4.4C112.509 4.656 112.541 4.976 112.541 5.36C112.541 5.728 112.509 6.048 112.445 6.32H111.485C111.549 6.576 111.581 6.896 111.581 7.28C111.581 7.648 111.549 7.968 111.485 8.24H106.685C106.749 8.496 106.781 8.816 106.781 9.2C106.781 9.568 106.749 9.888 106.685 10.16C106.749 10.416 106.781 10.736 106.781 11.12C106.781 11.488 106.749 11.808 106.685 12.08C106.749 12.336 106.781 12.656 106.781 13.04C106.781 13.408 106.749 13.728 106.685 14H104.765C104.701 13.728 104.669 13.408 104.669 13.04C104.669 12.656 104.701 12.336 104.765 12.08C104.701 11.808 104.669 11.488 104.669 11.12C104.669 10.736 104.701 10.416 104.765 10.16C104.701 9.888 104.669 9.568 104.669 9.2C104.669 8.816 104.701 8.496 104.765 8.24C104.701 7.968 104.669 7.648 104.669 7.28C104.669 6.896 104.701 6.576 104.765 6.32C104.701 6.048 104.669 5.728 104.669 5.36C104.669 4.976 104.701 4.656 104.765 4.4C104.701 4.128 104.669 3.808 104.669 3.44C104.669 3.056 104.701 2.736 104.765 2.48C104.701 2.208 104.669 1.888 104.669 1.52C104.669 1.136 104.701 0.816 104.765 0.56H111.485C111.549 0.816 111.581 1.136 111.581 1.52C111.581 1.888 111.549 2.208 111.485 2.48H112.445C112.509 2.736 112.541 3.056 112.541 3.44ZM110.525 6.32C110.461 6.048 110.429 5.728 110.429 5.36C110.429 4.976 110.461 4.656 110.525 4.4C110.461 4.128 110.429 3.808 110.429 3.44C110.429 3.056 110.461 2.736 110.525 2.48H106.685C106.749 2.736 106.781 3.056 106.781 3.44C106.781 3.808 106.749 4.128 106.685 4.4C106.749 4.656 106.781 4.976 106.781 5.36C106.781 5.728 106.749 6.048 106.685 6.32H110.525ZM122.054 12.08C122.118 12.336 122.15 12.656 122.15 13.04C122.15 13.408 122.118 13.728 122.054 14H120.134C120.07 13.728 120.038 13.408 120.038 13.04C120.038 12.656 120.07 12.336 120.134 12.08H119.414C119.35 11.808 119.318 11.488 119.318 11.12C119.318 10.736 119.35 10.416 119.414 10.16H118.694C118.63 9.888 118.598 9.568 118.598 9.2C118.598 8.816 118.63 8.496 118.694 8.24H116.294C116.358 8.496 116.39 8.816 116.39 9.2C116.39 9.568 116.358 9.888 116.294 10.16C116.358 10.416 116.39 10.736 116.39 11.12C116.39 11.488 116.358 11.808 116.294 12.08C116.358 12.336 116.39 12.656 116.39 13.04C116.39 13.408 116.358 13.728 116.294 14H114.374C114.31 13.728 114.278 13.408 114.278 13.04C114.278 12.656 114.31 12.336 114.374 12.08C114.31 11.808 114.278 11.488 114.278 11.12C114.278 10.736 114.31 10.416 114.374 10.16C114.31 9.888 114.278 9.568 114.278 9.2C114.278 8.816 114.31 8.496 114.374 8.24C114.31 7.968 114.278 7.648 114.278 7.28C114.278 6.896 114.31 6.576 114.374 6.32C114.31 6.048 114.278 5.728 114.278 5.36C114.278 4.976 114.31 4.656 114.374 4.4C114.31 4.128 114.278 3.808 114.278 3.44C114.278 3.056 114.31 2.736 114.374 2.48C114.31 2.208 114.278 1.888 114.278 1.52C114.278 1.136 114.31 0.816 114.374 0.56H121.094C121.158 0.816 121.19 1.136 121.19 1.52C121.19 1.888 121.158 2.208 121.094 2.48H122.054C122.118 2.736 122.15 3.056 122.15 3.44C122.15 3.808 122.118 4.128 122.054 4.4H121.574C121.638 4.656 121.67 4.976 121.67 5.36C121.67 5.728 121.638 6.048 121.574 6.32H120.134C120.198 6.576 120.23 6.896 120.23 7.28C120.23 7.648 120.198 7.968 120.134 8.24H120.614C120.678 8.496 120.71 8.816 120.71 9.2C120.71 9.568 120.678 9.888 120.614 10.16H121.334C121.398 10.416 121.43 10.736 121.43 11.12C121.43 11.488 121.398 11.808 121.334 12.08H122.054ZM119.654 6.32C119.59 6.048 119.558 5.728 119.558 5.36C119.558 4.976 119.59 4.656 119.654 4.4C119.59 4.128 119.558 3.808 119.558 3.44C119.558 3.056 119.59 2.736 119.654 2.48H116.294C116.358 2.736 116.39 3.056 116.39 3.44C116.39 3.808 116.358 4.128 116.294 4.4C116.358 4.656 116.39 4.976 116.39 5.36C116.39 5.728 116.358 6.048 116.294 6.32H119.654ZM126.863 8.24C126.927 8.496 126.959 8.816 126.959 9.2C126.959 9.568 126.927 9.888 126.863 10.16C126.927 10.416 126.959 10.736 126.959 11.12C126.959 11.488 126.927 11.808 126.863 12.08H130.703C130.767 12.336 130.799 12.656 130.799 13.04C130.799 13.408 130.767 13.728 130.703 14H124.943C124.879 13.728 124.847 13.408 124.847 13.04C124.847 12.656 124.879 12.336 124.943 12.08C124.879 11.808 124.847 11.488 124.847 11.12C124.847 10.736 124.879 10.416 124.943 10.16C124.879 9.888 124.847 9.568 124.847 9.2C124.847 8.816 124.879 8.496 124.943 8.24C124.879 7.968 124.847 7.648 124.847 7.28C124.847 6.896 124.879 6.576 124.943 6.32C124.879 6.048 124.847 5.728 124.847 5.36C124.847 4.976 124.879 4.656 124.943 4.4C124.879 4.128 124.847 3.808 124.847 3.44C124.847 3.056 124.879 2.736 124.943 2.48C124.879 2.208 124.847 1.888 124.847 1.52C124.847 1.136 124.879 0.816 124.943 0.56H130.703C130.767 0.816 130.799 1.136 130.799 1.52C130.799 1.888 130.767 2.208 130.703 2.48H126.863C126.927 2.736 126.959 3.056 126.959 3.44C126.959 3.808 126.927 4.128 126.863 4.4C126.927 4.656 126.959 4.976 126.959 5.36C126.959 5.728 126.927 6.048 126.863 6.32H130.703C130.767 6.576 130.799 6.896 130.799 7.28C130.799 7.648 130.767 7.968 130.703 8.24H126.863ZM141.273 8.24C141.337 8.496 141.369 8.816 141.369 9.2C141.369 9.568 141.337 9.888 141.273 10.16C141.337 10.416 141.369 10.736 141.369 11.12C141.369 11.488 141.337 11.808 141.273 12.08H140.313C140.377 12.336 140.409 12.656 140.409 13.04C140.409 13.408 140.377 13.728 140.313 14H134.553C134.489 13.728 134.457 13.408 134.457 13.04C134.457 12.656 134.489 12.336 134.553 12.08H133.593C133.529 11.808 133.497 11.488 133.497 11.12C133.497 10.736 133.529 10.416 133.593 10.16H135.513C135.577 10.416 135.609 10.736 135.609 11.12C135.609 11.488 135.577 11.808 135.513 12.08H139.353C139.289 11.808 139.257 11.488 139.257 11.12C139.257 10.736 139.289 10.416 139.353 10.16C139.289 9.888 139.257 9.568 139.257 9.2C139.257 8.816 139.289 8.496 139.353 8.24H134.553C134.489 7.968 134.457 7.648 134.457 7.28C134.457 6.896 134.489 6.576 134.553 6.32H133.593C133.529 6.048 133.497 5.728 133.497 5.36C133.497 4.976 133.529 4.656 133.593 4.4C133.529 4.128 133.497 3.808 133.497 3.44C133.497 3.056 133.529 2.736 133.593 2.48H134.553C134.489 2.208 134.457 1.888 134.457 1.52C134.457 1.136 134.489 0.816 134.553 0.56H140.313C140.377 0.816 140.409 1.136 140.409 1.52C140.409 1.888 140.377 2.208 140.313 2.48H141.273C141.337 2.736 141.369 3.056 141.369 3.44C141.369 3.808 141.337 4.128 141.273 4.4H139.353C139.289 4.128 139.257 3.808 139.257 3.44C139.257 3.056 139.289 2.736 139.353 2.48H135.513C135.577 2.736 135.609 3.056 135.609 3.44C135.609 3.808 135.577 4.128 135.513 4.4C135.577 4.656 135.609 4.976 135.609 5.36C135.609 5.728 135.577 6.048 135.513 6.32H140.313C140.377 6.576 140.409 6.896 140.409 7.28C140.409 7.648 140.377 7.968 140.313 8.24H141.273ZM146.082 8.24C146.146 8.496 146.178 8.816 146.178 9.2C146.178 9.568 146.146 9.888 146.082 10.16C146.146 10.416 146.178 10.736 146.178 11.12C146.178 11.488 146.146 11.808 146.082 12.08H149.922C149.986 12.336 150.018 12.656 150.018 13.04C150.018 13.408 149.986 13.728 149.922 14H144.162C144.098 13.728 144.066 13.408 144.066 13.04C144.066 12.656 144.098 12.336 144.162 12.08C144.098 11.808 144.066 11.488 144.066 11.12C144.066 10.736 144.098 10.416 144.162 10.16C144.098 9.888 144.066 9.568 144.066 9.2C144.066 8.816 144.098 8.496 144.162 8.24C144.098 7.968 144.066 7.648 144.066 7.28C144.066 6.896 144.098 6.576 144.162 6.32C144.098 6.048 144.066 5.728 144.066 5.36C144.066 4.976 144.098 4.656 144.162 4.4C144.098 4.128 144.066 3.808 144.066 3.44C144.066 3.056 144.098 2.736 144.162 2.48C144.098 2.208 144.066 1.888 144.066 1.52C144.066 1.136 144.098 0.816 144.162 0.56H149.922C149.986 0.816 150.018 1.136 150.018 1.52C150.018 1.888 149.986 2.208 149.922 2.48H146.082C146.146 2.736 146.178 3.056 146.178 3.44C146.178 3.808 146.146 4.128 146.082 4.4C146.146 4.656 146.178 4.976 146.178 5.36C146.178 5.728 146.146 6.048 146.082 6.32H149.922C149.986 6.576 150.018 6.896 150.018 7.28C150.018 7.648 149.986 7.968 149.922 8.24H146.082ZM160.492 2.48C160.556 2.736 160.588 3.056 160.588 3.44C160.588 3.808 160.556 4.128 160.492 4.4C160.556 4.656 160.588 4.976 160.588 5.36C160.588 5.728 160.556 6.048 160.492 6.32C160.556 6.576 160.588 6.896 160.588 7.28C160.588 7.648 160.556 7.968 160.492 8.24C160.556 8.496 160.588 8.816 160.588 9.2C160.588 9.568 160.556 9.888 160.492 10.16C160.556 10.416 160.588 10.736 160.588 11.12C160.588 11.488 160.556 11.808 160.492 12.08C160.556 12.336 160.588 12.656 160.588 13.04C160.588 13.408 160.556 13.728 160.492 14H158.572C158.508 13.728 158.476 13.408 158.476 13.04C158.476 12.656 158.508 12.336 158.572 12.08H157.372C157.308 11.808 157.276 11.488 157.276 11.12C157.276 10.736 157.308 10.416 157.372 10.16H156.652C156.588 9.888 156.556 9.568 156.556 9.2C156.556 8.816 156.588 8.496 156.652 8.24H155.692C155.628 7.968 155.596 7.648 155.596 7.28C155.596 6.896 155.628 6.576 155.692 6.32H154.732C154.796 6.576 154.828 6.896 154.828 7.28C154.828 7.648 154.796 7.968 154.732 8.24C154.796 8.496 154.828 8.816 154.828 9.2C154.828 9.568 154.796 9.888 154.732 10.16C154.796 10.416 154.828 10.736 154.828 11.12C154.828 11.488 154.796 11.808 154.732 12.08C154.796 12.336 154.828 12.656 154.828 13.04C154.828 13.408 154.796 13.728 154.732 14H152.812C152.748 13.728 152.716 13.408 152.716 13.04C152.716 12.656 152.748 12.336 152.812 12.08C152.748 11.808 152.716 11.488 152.716 11.12C152.716 10.736 152.748 10.416 152.812 10.16C152.748 9.888 152.716 9.568 152.716 9.2C152.716 8.816 152.748 8.496 152.812 8.24C152.748 7.968 152.716 7.648 152.716 7.28C152.716 6.896 152.748 6.576 152.812 6.32C152.748 6.048 152.716 5.728 152.716 5.36C152.716 4.976 152.748 4.656 152.812 4.4C152.748 4.128 152.716 3.808 152.716 3.44C152.716 3.056 152.748 2.736 152.812 2.48C152.748 2.208 152.716 1.888 152.716 1.52C152.716 1.136 152.748 0.816 152.812 0.56H155.212C155.276 0.816 155.308 1.136 155.308 1.52C155.308 1.888 155.276 2.208 155.212 2.48H155.932C155.996 2.736 156.028 3.056 156.028 3.44C156.028 3.808 155.996 4.128 155.932 4.4H156.652C156.716 4.656 156.748 4.976 156.748 5.36C156.748 5.728 156.716 6.048 156.652 6.32H157.612C157.676 6.576 157.708 6.896 157.708 7.28C157.708 7.648 157.676 7.968 157.612 8.24H158.572C158.508 7.968 158.476 7.648 158.476 7.28C158.476 6.896 158.508 6.576 158.572 6.32C158.508 6.048 158.476 5.728 158.476 5.36C158.476 4.976 158.508 4.656 158.572 4.4C158.508 4.128 158.476 3.808 158.476 3.44C158.476 3.056 158.508 2.736 158.572 2.48C158.508 2.208 158.476 1.888 158.476 1.52C158.476 1.136 158.508 0.816 158.572 0.56H160.492C160.556 0.816 160.588 1.136 160.588 1.52C160.588 1.888 160.556 2.208 160.492 2.48ZM170.197 1.52C170.197 1.888 170.165 2.208 170.101 2.48H167.221C167.285 2.736 167.317 3.056 167.317 3.44C167.317 3.808 167.285 4.128 167.221 4.4C167.285 4.656 167.317 4.976 167.317 5.36C167.317 5.728 167.285 6.048 167.221 6.32C167.285 6.576 167.317 6.896 167.317 7.28C167.317 7.648 167.285 7.968 167.221 8.24C167.285 8.496 167.317 8.816 167.317 9.2C167.317 9.568 167.285 9.888 167.221 10.16C167.285 10.416 167.317 10.736 167.317 11.12C167.317 11.488 167.285 11.808 167.221 12.08C167.285 12.336 167.317 12.656 167.317 13.04C167.317 13.408 167.285 13.728 167.221 14H165.301C165.237 13.728 165.205 13.408 165.205 13.04C165.205 12.656 165.237 12.336 165.301 12.08C165.237 11.808 165.205 11.488 165.205 11.12C165.205 10.736 165.237 10.416 165.301 10.16C165.237 9.888 165.205 9.568 165.205 9.2C165.205 8.816 165.237 8.496 165.301 8.24C165.237 7.968 165.205 7.648 165.205 7.28C165.205 6.896 165.237 6.576 165.301 6.32C165.237 6.048 165.205 5.728 165.205 5.36C165.205 4.976 165.237 4.656 165.301 4.4C165.237 4.128 165.205 3.808 165.205 3.44C165.205 3.056 165.237 2.736 165.301 2.48H162.421C162.357 2.208 162.325 1.888 162.325 1.52C162.325 1.136 162.357 0.816 162.421 0.56H170.101C170.165 0.816 170.197 1.136 170.197 1.52ZM179.71 8.24C179.774 8.496 179.806 8.816 179.806 9.2C179.806 9.568 179.774 9.888 179.71 10.16C179.774 10.416 179.806 10.736 179.806 11.12C179.806 11.488 179.774 11.808 179.71 12.08H178.75C178.814 12.336 178.846 12.656 178.846 13.04C178.846 13.408 178.814 13.728 178.75 14H172.99C172.926 13.728 172.894 13.408 172.894 13.04C172.894 12.656 172.926 12.336 172.99 12.08H172.03C171.966 11.808 171.934 11.488 171.934 11.12C171.934 10.736 171.966 10.416 172.03 10.16H173.95C174.014 10.416 174.046 10.736 174.046 11.12C174.046 11.488 174.014 11.808 173.95 12.08H177.79C177.726 11.808 177.694 11.488 177.694 11.12C177.694 10.736 177.726 10.416 177.79 10.16C177.726 9.888 177.694 9.568 177.694 9.2C177.694 8.816 177.726 8.496 177.79 8.24H172.99C172.926 7.968 172.894 7.648 172.894 7.28C172.894 6.896 172.926 6.576 172.99 6.32H172.03C171.966 6.048 171.934 5.728 171.934 5.36C171.934 4.976 171.966 4.656 172.03 4.4C171.966 4.128 171.934 3.808 171.934 3.44C171.934 3.056 171.966 2.736 172.03 2.48H172.99C172.926 2.208 172.894 1.888 172.894 1.52C172.894 1.136 172.926 0.816 172.99 0.56H178.75C178.814 0.816 178.846 1.136 178.846 1.52C178.846 1.888 178.814 2.208 178.75 2.48H179.71C179.774 2.736 179.806 3.056 179.806 3.44C179.806 3.808 179.774 4.128 179.71 4.4H177.79C177.726 4.128 177.694 3.808 177.694 3.44C177.694 3.056 177.726 2.736 177.79 2.48H173.95C174.014 2.736 174.046 3.056 174.046 3.44C174.046 3.808 174.014 4.128 173.95 4.4C174.014 4.656 174.046 4.976 174.046 5.36C174.046 5.728 174.014 6.048 173.95 6.32H178.75C178.814 6.576 178.846 6.896 178.846 7.28C178.846 7.648 178.814 7.968 178.75 8.24H179.71ZM197.489 6.32C197.553 6.576 197.585 6.896 197.585 7.28C197.585 7.648 197.553 7.968 197.489 8.24H192.689C192.625 7.968 192.593 7.648 192.593 7.28C192.593 6.896 192.625 6.576 192.689 6.32H197.489Z" fill="#3E1C04"/>
</svg>
