<svg width="453" height="21" viewBox="-3 -3 459 27" fill="none" xmlns="http://www.w3.org/2000/svg">

<path d="M3 18H0V21H3V18ZM3 15H6V12H3V15ZM0 15H-3V18H0V15ZM0 6V3H-3V6H0ZM3 6V9H6V6H3ZM3 3V0H0V3H3ZM12 3H15V0H12V3ZM12 6H9V9H12V6ZM15 6H18V3H15V6ZM15 15V18H18V15H15ZM12 15V12H9V15H12ZM12 18V21H15V18H12ZM6 14.88H3V17.88H6V14.88ZM9 14.88V17.88H12V14.88H9ZM9 6.12H12V3.12H9V6.12ZM6 6.12V3.12H3V6.12H6ZM6 18V15H0V18H6ZM3 12H0V18H3V12ZM3 15V6H-3V15H3ZM0 9H3V3H0V9ZM6 6V3H0V6H6ZM3 6H12V0H3V6ZM9 3V6H15V3H9ZM12 9H15V3H12V9ZM12 6V15H18V6H12ZM15 12H12V18H15V12ZM9 15V18H15V15H9ZM12 15H3V21H12V15ZM6 17.88H9V11.88H6V17.88ZM12 14.88V6.12H6V14.88H12ZM9 3.12H6V9.12H9V3.12ZM3 6.12V14.88H9V6.12H3ZM20.04 18H17.04V21H20.04V18ZM20.04 3V0H17.04V3H20.04ZM26.04 3H29.04V0H26.04V3ZM26.04 6H23.04V9H26.04V6ZM29.04 6H32.04V3H29.04V6ZM29.04 9H26.04V12H29.04V9ZM32.04 9V12H35.04V9H32.04ZM32.04 3V0H29.04V3H32.04ZM38.04 3H41.04V0H38.04V3ZM38.04 18V21H41.04V18H38.04ZM32.04 18H29.04V21H32.04V18ZM32.04 15H35.04V12H32.04V15ZM29.04 15H26.04V18H29.04V15ZM29.04 12H32.04V9H29.04V12ZM26.04 12V9H23.04V12H26.04ZM26.04 18V21H29.04V18H26.04ZM23.04 18V3H17.04V18H23.04ZM20.04 6H26.04V0H20.04V6ZM23.04 3V6H29.04V3H23.04ZM26.04 9H29.04V3H26.04V9ZM26.04 6V9H32.04V6H26.04ZM29.04 12H32.04V6H29.04V12ZM35.04 9V3H29.04V9H35.04ZM32.04 6H38.04V0H32.04V6ZM35.04 3V18H41.04V3H35.04ZM38.04 15H32.04V21H38.04V15ZM35.04 18V15H29.04V18H35.04ZM32.04 12H29.04V18H32.04V12ZM32.04 15V12H26.04V15H32.04ZM29.04 9H26.04V15H29.04V9ZM23.04 12V18H29.04V12H23.04ZM26.04 15H20.04V21H26.04V15ZM43.08 18H40.08V21H43.08V18ZM43.08 3V0H40.08V3H43.08ZM55.08 3H58.08V0H55.08V3ZM55.08 6V9H58.08V6H55.08ZM49.08 6V3H46.08V6H49.08ZM49.08 9H46.08V12H49.08V9ZM55.08 9H58.08V6H55.08V9ZM55.08 12V15H58.08V12H55.08ZM49.08 12V9H46.08V12H49.08ZM49.08 15H46.08V18H49.08V15ZM55.08 15H58.08V12H55.08V15ZM55.08 18V21H58.08V18H55.08ZM46.08 18V3H40.08V18H46.08ZM43.08 6H55.08V0H43.08V6ZM52.08 3V6H58.08V3H52.08ZM55.08 3H49.08V9H55.08V3ZM46.08 6V9H52.08V6H46.08ZM49.08 12H55.08V6H49.08V12ZM52.08 9V12H58.08V9H52.08ZM55.08 9H49.08V15H55.08V9ZM46.08 12V15H52.08V12H46.08ZM49.08 18H55.08V12H49.08V18ZM52.08 15V18H58.08V15H52.08ZM55.08 15H43.08V21H55.08V15ZM74.16 21H71.16V24H74.16V21ZM74.16 18H77.16V15H74.16V18ZM71.16 18H68.16V21H71.16V18ZM71.16 15V12H68.16V15H71.16ZM80.16 15V18H83.16V15H80.16ZM80.16 12H83.16V9H80.16V12ZM74.16 12H71.16V15H74.16V12ZM74.16 9H77.16V6H74.16V9ZM71.16 9H68.16V12H71.16V9ZM71.16 6V3H68.16V6H71.16ZM74.16 6V9H77.16V6H74.16ZM74.16 3V0H71.16V3H74.16ZM77.16 3V6H80.16V3H77.16ZM77.16 -1.43051e-06V-3H74.16V-1.43051e-06H77.16ZM83.16 -1.43051e-06H86.16V-3H83.16V-1.43051e-06ZM83.16 3H80.16V6H83.16V3ZM86.16 3H89.16V0H86.16V3ZM86.16 6V9H89.16V6H86.16ZM77.16 6V3H74.16V6H77.16ZM77.16 9H74.16V12H77.16V9ZM83.16 9H86.16V6H83.16V9ZM83.16 12H80.16V15H83.16V12ZM86.16 12H89.16V9H86.16V12ZM86.16 15V18H89.16V15H86.16ZM83.16 15V12H80.16V15H83.16ZM83.16 18V21H86.16V18H83.16ZM80.16 18V15H77.16V18H80.16ZM80.16 21V24H83.16V21H80.16ZM77.16 21V18H71.16V21H77.16ZM74.16 15H71.16V21H74.16V15ZM74.16 18V15H68.16V18H74.16ZM71.16 18H80.16V12H71.16V18ZM83.16 15V12H77.16V15H83.16ZM80.16 9H74.16V15H80.16V9ZM77.16 12V9H71.16V12H77.16ZM74.16 6H71.16V12H74.16V6ZM74.16 9V6H68.16V9H74.16ZM71.16 9H74.16V3H71.16V9ZM77.16 6V3H71.16V6H77.16ZM74.16 6H77.16V0H74.16V6ZM80.16 3V-1.43051e-06H74.16V3H80.16ZM77.16 3H83.16V-3H77.16V3ZM80.16 -1.43051e-06V3H86.16V-1.43051e-06H80.16ZM83.16 6H86.16V0H83.16V6ZM83.16 3V6H89.16V3H83.16ZM86.16 3H77.16V9H86.16V3ZM74.16 6V9H80.16V6H74.16ZM77.16 12H83.16V6H77.16V12ZM80.16 9V12H86.16V9H80.16ZM83.16 15H86.16V9H83.16V15ZM83.16 12V15H89.16V12H83.16ZM86.16 12H83.16V18H86.16V12ZM80.16 15V18H86.16V15H80.16ZM83.16 15H80.16V21H83.16V15ZM77.16 18V21H83.16V18H77.16ZM80.16 18H74.16V24H80.16V18ZM91.2 18H88.2V21H91.2V18ZM91.2 3V0H88.2V3H91.2ZM97.2 3H100.2V0H97.2V3ZM97.2 6H94.2V9H97.2V6ZM103.2 6V9H106.2V6H103.2ZM103.2 3V0H100.2V3H103.2ZM109.2 3H112.2V0H109.2V3ZM109.2 18V21H112.2V18H109.2ZM103.2 18H100.2V21H103.2V18ZM103.2 12H106.2V9H103.2V12ZM97.2 12V9H94.2V12H97.2ZM97.2 18V21H100.2V18H97.2ZM94.2 18V3H88.2V18H94.2ZM91.2 6H97.2V0H91.2V6ZM94.2 3V6H100.2V3H94.2ZM97.2 9H103.2V3H97.2V9ZM106.2 6V3H100.2V6H106.2ZM103.2 6H109.2V0H103.2V6ZM106.2 3V18H112.2V3H106.2ZM109.2 15H103.2V21H109.2V15ZM106.2 18V12H100.2V18H106.2ZM103.2 9H97.2V15H103.2V9ZM94.2 12V18H100.2V12H94.2ZM97.2 15H91.2V21H97.2V15ZM114.24 18H111.24V21H114.24V18ZM114.24 3V0H111.24V3H114.24ZM126.24 3H129.24V0H126.24V3ZM126.24 6V9H129.24V6H126.24ZM120.24 6V3H117.24V6H120.24ZM120.24 9H117.24V12H120.24V9ZM126.24 9H129.24V6H126.24V9ZM126.24 12V15H129.24V12H126.24ZM120.24 12V9H117.24V12H120.24ZM120.24 15H117.24V18H120.24V15ZM126.24 15H129.24V12H126.24V15ZM126.24 18V21H129.24V18H126.24ZM117.24 18V3H111.24V18H117.24ZM114.24 6H126.24V0H114.24V6ZM123.24 3V6H129.24V3H123.24ZM126.24 3H120.24V9H126.24V3ZM117.24 6V9H123.24V6H117.24ZM120.24 12H126.24V6H120.24V12ZM123.24 9V12H129.24V9H123.24ZM126.24 9H120.24V15H126.24V9ZM117.24 12V15H123.24V12H117.24ZM120.24 18H126.24V12H120.24V18ZM123.24 15V18H129.24V15H123.24ZM126.24 15H114.24V21H126.24V15ZM131.28 18H128.28V21H131.28V18ZM131.28 3V0H128.28V3H131.28ZM137.28 3H140.28V0H137.28V3ZM137.28 6H134.28V9H137.28V6ZM143.28 6V9H146.28V6H143.28ZM143.28 3V0H140.28V3H143.28ZM149.28 3H152.28V0H149.28V3ZM149.28 18V21H152.28V18H149.28ZM143.28 18H140.28V21H143.28V18ZM143.28 12H146.28V9H143.28V12ZM137.28 12V9H134.28V12H137.28ZM137.28 18V21H140.28V18H137.28ZM134.28 18V3H128.28V18H134.28ZM131.28 6H137.28V0H131.28V6ZM134.28 3V6H140.28V3H134.28ZM137.28 9H143.28V3H137.28V9ZM146.28 6V3H140.28V6H146.28ZM143.28 6H149.28V0H143.28V6ZM146.28 3V18H152.28V3H146.28ZM149.28 15H143.28V21H149.28V15ZM146.28 18V12H140.28V18H146.28ZM143.28 9H137.28V15H143.28V9ZM134.28 12V18H140.28V12H134.28ZM137.28 15H131.28V21H137.28V15ZM154.32 18H151.32V21H154.32V18ZM154.32 3V0H151.32V3H154.32ZM166.32 3H169.32V0H166.32V3ZM166.32 6V9H169.32V6H166.32ZM160.32 6V3H157.32V6H160.32ZM160.32 9H157.32V12H160.32V9ZM166.32 9H169.32V6H166.32V9ZM166.32 12V15H169.32V12H166.32ZM160.32 12V9H157.32V12H160.32ZM160.32 15H157.32V18H160.32V15ZM166.32 15H169.32V12H166.32V15ZM166.32 18V21H169.32V18H166.32ZM157.32 18V3H151.32V18H157.32ZM154.32 6H166.32V0H154.32V6ZM163.32 3V6H169.32V3H163.32ZM166.32 3H160.32V9H166.32V3ZM157.32 6V9H163.32V6H157.32ZM160.32 12H166.32V6H160.32V12ZM163.32 9V12H169.32V9H163.32ZM166.32 9H160.32V15H166.32V9ZM157.32 12V15H163.32V12H157.32ZM160.32 18H166.32V12H160.32V18ZM163.32 15V18H169.32V15H163.32ZM166.32 15H154.32V21H166.32V15ZM185.4 18H182.4V21H185.4V18ZM185.4 6H188.4V3H185.4V6ZM182.4 6H179.4V9H182.4V6ZM182.4 3V0H179.4V3H182.4ZM194.4 3H197.4V0H194.4V3ZM194.4 6V9H197.4V6H194.4ZM191.4 6V3H188.4V6H191.4ZM191.4 18V21H194.4V18H191.4ZM188.4 18V6H182.4V18H188.4ZM185.4 3H182.4V9H185.4V3ZM185.4 6V3H179.4V6H185.4ZM182.4 6H194.4V0H182.4V6ZM191.4 3V6H197.4V3H191.4ZM194.4 3H191.4V9H194.4V3ZM188.4 6V18H194.4V6H188.4ZM191.4 15H185.4V21H191.4V15ZM202.44 18H199.44V21H202.44V18ZM202.44 15H205.44V12H202.44V15ZM199.44 15H196.44V18H199.44V15ZM199.44 6V3H196.44V6H199.44ZM202.44 6V9H205.44V6H202.44ZM202.44 3V0H199.44V3H202.44ZM211.44 3H214.44V0H211.44V3ZM211.44 6H208.44V9H211.44V6ZM214.44 6H217.44V3H214.44V6ZM214.44 15V18H217.44V15H214.44ZM211.44 15V12H208.44V15H211.44ZM211.44 18V21H214.44V18H211.44ZM205.44 14.88H202.44V17.88H205.44V14.88ZM208.44 14.88V17.88H211.44V14.88H208.44ZM208.44 6.12H211.44V3.12H208.44V6.12ZM205.44 6.12V3.12H202.44V6.12H205.44ZM205.44 18V15H199.44V18H205.44ZM202.44 12H199.44V18H202.44V12ZM202.44 15V6H196.44V15H202.44ZM199.44 9H202.44V3H199.44V9ZM205.44 6V3H199.44V6H205.44ZM202.44 6H211.44V0H202.44V6ZM208.44 3V6H214.44V3H208.44ZM211.44 9H214.44V3H211.44V9ZM211.44 6V15H217.44V6H211.44ZM214.44 12H211.44V18H214.44V12ZM208.44 15V18H214.44V15H208.44ZM211.44 15H202.44V21H211.44V15ZM205.44 17.88H208.44V11.88H205.44V17.88ZM211.44 14.88V6.12H205.44V14.88H211.44ZM208.44 3.12H205.44V9.12H208.44V3.12ZM202.44 6.12V14.88H208.44V6.12H202.44ZM230.52 18H227.52V21H230.52V18ZM230.52 3V0H227.52V3H230.52ZM242.52 3H245.52V0H242.52V3ZM242.52 6H239.52V9H242.52V6ZM245.52 6H248.52V3H245.52V6ZM245.52 9V12H248.52V9H245.52ZM242.52 9V6H239.52V9H242.52ZM242.52 15H239.52V18H242.52V15ZM245.52 15H248.52V12H245.52V15ZM245.52 18V21H248.52V18H245.52ZM239.52 18H236.52V21H239.52V18ZM239.52 15H242.52V12H239.52V15ZM236.52 15V12H233.52V15H236.52ZM236.52 18V21H239.52V18H236.52ZM236.52 9H233.52V12H236.52V9ZM239.52 9V12H242.52V9H239.52ZM239.52 6H242.52V3H239.52V6ZM236.52 6V3H233.52V6H236.52ZM233.52 18V3H227.52V18H233.52ZM230.52 6H242.52V0H230.52V6ZM239.52 3V6H245.52V3H239.52ZM242.52 9H245.52V3H242.52V9ZM242.52 6V9H248.52V6H242.52ZM245.52 6H242.52V12H245.52V6ZM239.52 9V15H245.52V9H239.52ZM242.52 18H245.52V12H242.52V18ZM242.52 15V18H248.52V15H242.52ZM245.52 15H239.52V21H245.52V15ZM242.52 18V15H236.52V18H242.52ZM239.52 12H236.52V18H239.52V12ZM233.52 15V18H239.52V15H233.52ZM236.52 15H230.52V21H236.52V15ZM236.52 12H239.52V6H236.52V12ZM242.52 9V6H236.52V9H242.52ZM239.52 3H236.52V9H239.52V3ZM233.52 6V9H239.52V6H233.52ZM253.56 18H250.56V21H253.56V18ZM253.56 15H256.56V12H253.56V15ZM250.56 15H247.56V18H250.56V15ZM250.56 3V0H247.56V3H250.56ZM256.56 3H259.56V0H256.56V3ZM256.56 15H253.56V18H256.56V15ZM259.56 15V18H262.56V15H259.56ZM259.56 3V0H256.56V3H259.56ZM265.56 3H268.56V0H265.56V3ZM265.56 15V18H268.56V15H265.56ZM262.56 15V12H259.56V15H262.56ZM262.56 18V21H265.56V18H262.56ZM256.56 18V15H250.56V18H256.56ZM253.56 12H250.56V18H253.56V12ZM253.56 15V3H247.56V15H253.56ZM250.56 6H256.56V0H250.56V6ZM253.56 3V15H259.56V3H253.56ZM256.56 18H259.56V12H256.56V18ZM262.56 15V3H256.56V15H262.56ZM259.56 6H265.56V0H259.56V6ZM262.56 3V15H268.56V3H262.56ZM265.56 12H262.56V18H265.56V12ZM259.56 15V18H265.56V15H259.56ZM262.56 15H253.56V21H262.56V15ZM270.6 18H267.6V21H270.6V18ZM270.6 3V0H267.6V3H270.6ZM276.6 3H279.6V0H276.6V3ZM276.6 15H273.6V18H276.6V15ZM282.6 15H285.6V12H282.6V15ZM282.6 18V21H285.6V18H282.6ZM273.6 18V3H267.6V18H273.6ZM270.6 6H276.6V0H270.6V6ZM273.6 3V15H279.6V3H273.6ZM276.6 18H282.6V12H276.6V18ZM279.6 15V18H285.6V15H279.6ZM282.6 15H270.6V21H282.6V15ZM287.64 18H284.64V21H287.64V18ZM287.64 3V0H284.64V3H287.64ZM299.64 3H302.64V0H299.64V3ZM299.64 6V9H302.64V6H299.64ZM293.64 6V3H290.64V6H293.64ZM293.64 9H290.64V12H293.64V9ZM299.64 9H302.64V6H299.64V9ZM299.64 12V15H302.64V12H299.64ZM293.64 12V9H290.64V12H293.64ZM293.64 15H290.64V18H293.64V15ZM299.64 15H302.64V12H299.64V15ZM299.64 18V21H302.64V18H299.64ZM290.64 18V3H284.64V18H290.64ZM287.64 6H299.64V0H287.64V6ZM296.64 3V6H302.64V3H296.64ZM299.64 3H293.64V9H299.64V3ZM290.64 6V9H296.64V6H290.64ZM293.64 12H299.64V6H293.64V12ZM296.64 9V12H302.64V9H296.64ZM299.64 9H293.64V15H299.64V9ZM290.64 12V15H296.64V12H290.64ZM293.64 18H299.64V12H293.64V18ZM296.64 15V18H302.64V15H296.64ZM299.64 15H287.64V21H299.64V15ZM318.72 18H315.72V21H318.72V18ZM318.72 6H321.72V3H318.72V6ZM315.72 6H312.72V9H315.72V6ZM315.72 3V0H312.72V3H315.72ZM327.72 3H330.72V0H327.72V3ZM327.72 6V9H330.72V6H327.72ZM324.72 6V3H321.72V6H324.72ZM324.72 18V21H327.72V18H324.72ZM321.72 18V6H315.72V18H321.72ZM318.72 3H315.72V9H318.72V3ZM318.72 6V3H312.72V6H318.72ZM315.72 6H327.72V0H315.72V6ZM324.72 3V6H330.72V3H324.72ZM327.72 3H324.72V9H327.72V3ZM321.72 6V18H327.72V6H321.72ZM324.72 15H318.72V21H324.72V15ZM332.76 18H329.76V21H332.76V18ZM332.76 3V0H329.76V3H332.76ZM338.76 3H341.76V0H338.76V3ZM338.76 9H335.76V12H338.76V9ZM341.76 9V12H344.76V9H341.76ZM341.76 3V0H338.76V3H341.76ZM347.76 3H350.76V0H347.76V3ZM347.76 18V21H350.76V18H347.76ZM341.76 18H338.76V21H341.76V18ZM341.76 12H344.76V9H341.76V12ZM338.76 12V9H335.76V12H338.76ZM338.76 18V21H341.76V18H338.76ZM335.76 18V3H329.76V18H335.76ZM332.76 6H338.76V0H332.76V6ZM335.76 3V9H341.76V3H335.76ZM338.76 12H341.76V6H338.76V12ZM344.76 9V3H338.76V9H344.76ZM341.76 6H347.76V0H341.76V6ZM344.76 3V18H350.76V3H344.76ZM347.76 15H341.76V21H347.76V15ZM344.76 18V12H338.76V18H344.76ZM341.76 9H338.76V15H341.76V9ZM335.76 12V18H341.76V12H335.76ZM338.76 15H332.76V21H338.76V15ZM352.8 18H349.8V21H352.8V18ZM352.8 3V0H349.8V3H352.8ZM364.8 3H367.8V0H364.8V3ZM364.8 6V9H367.8V6H364.8ZM358.8 6V3H355.8V6H358.8ZM358.8 9H355.8V12H358.8V9ZM364.8 9H367.8V6H364.8V9ZM364.8 12V15H367.8V12H364.8ZM358.8 12V9H355.8V12H358.8ZM358.8 15H355.8V18H358.8V15ZM364.8 15H367.8V12H364.8V15ZM364.8 18V21H367.8V18H364.8ZM355.8 18V3H349.8V18H355.8ZM352.8 6H364.8V0H352.8V6ZM361.8 3V6H367.8V3H361.8ZM364.8 3H358.8V9H364.8V3ZM355.8 6V9H361.8V6H355.8ZM358.8 12H364.8V6H358.8V12ZM361.8 9V12H367.8V9H361.8ZM364.8 9H358.8V15H364.8V9ZM355.8 12V15H361.8V12H355.8ZM358.8 18H364.8V12H358.8V18ZM361.8 15V18H367.8V15H361.8ZM364.8 15H352.8V21H364.8V15ZM369.84 18H366.84V21H369.84V18ZM369.84 3V0H366.84V3H369.84ZM375.84 3H378.84V0H375.84V3ZM375.84 6H372.84V9H375.84V6ZM381.84 6V9H384.84V6H381.84ZM381.84 3V0H378.84V3H381.84ZM387.84 3H390.84V0H387.84V3ZM387.84 18V21H390.84V18H387.84ZM381.84 18H378.84V21H381.84V18ZM381.84 12H384.84V9H381.84V12ZM375.84 12V9H372.84V12H375.84ZM375.84 18V21H378.84V18H375.84ZM372.84 18V3H366.84V18H372.84ZM369.84 6H375.84V0H369.84V6ZM372.84 3V6H378.84V3H372.84ZM375.84 9H381.84V3H375.84V9ZM384.84 6V3H378.84V6H384.84ZM381.84 6H387.84V0H381.84V6ZM384.84 3V18H390.84V3H384.84ZM387.84 15H381.84V21H387.84V15ZM384.84 18V12H378.84V18H384.84ZM381.84 9H375.84V15H381.84V9ZM372.84 12V18H378.84V12H372.84ZM375.84 15H369.84V21H375.84V15ZM403.92 18H400.92V21H403.92V18ZM403.92 6V3H400.92V6H403.92ZM406.92 6V9H409.92V6H406.92ZM406.92 3V0H403.92V3H406.92ZM415.92 3H418.92V0H415.92V3ZM415.92 6H412.92V9H415.92V6ZM418.92 6H421.92V3H418.92V6ZM418.92 18V21H421.92V18H418.92ZM412.92 18H409.92V21H412.92V18ZM412.92 12H415.92V9H412.92V12ZM409.92 12V9H406.92V12H409.92ZM409.92 18V21H412.92V18H409.92ZM409.92 9H406.92V12H409.92V9ZM412.92 9V12H415.92V9H412.92ZM412.92 6.12H415.92V3.12H412.92V6.12ZM409.92 6.12V3.12H406.92V6.12H409.92ZM406.92 18V6H400.92V18H406.92ZM403.92 9H406.92V3H403.92V9ZM409.92 6V3H403.92V6H409.92ZM406.92 6H415.92V0H406.92V6ZM412.92 3V6H418.92V3H412.92ZM415.92 9H418.92V3H415.92V9ZM415.92 6V18H421.92V6H415.92ZM418.92 15H412.92V21H418.92V15ZM415.92 18V12H409.92V18H415.92ZM412.92 9H409.92V15H412.92V9ZM406.92 12V18H412.92V12H406.92ZM409.92 15H403.92V21H409.92V15ZM409.92 12H412.92V6H409.92V12ZM415.92 9V6.12H409.92V9H415.92ZM412.92 3.12H409.92V9.12H412.92V3.12ZM406.92 6.12V9H412.92V6.12H406.92ZM423.96 18H420.96V21H423.96V18ZM423.96 3V0H420.96V3H423.96ZM429.96 3H432.96V0H429.96V3ZM429.96 15H426.96V18H429.96V15ZM435.96 15H438.96V12H435.96V15ZM435.96 18V21H438.96V18H435.96ZM426.96 18V3H420.96V18H426.96ZM423.96 6H429.96V0H423.96V6ZM426.96 3V15H432.96V3H426.96ZM429.96 18H435.96V12H429.96V18ZM432.96 15V18H438.96V15H432.96ZM435.96 15H423.96V21H435.96V15ZM441 18H438V21H441V18ZM441 3V0H438V3H441ZM447 3H450V0H447V3ZM447 15H444V18H447V15ZM453 15H456V12H453V15ZM453 18V21H456V18H453ZM444 18V3H438V18H444ZM441 6H447V0H441V6ZM444 3V15H450V3H444ZM447 18H453V12H447V18ZM450 15V18H456V15H450ZM453 15H441V21H453V15Z" fill="#3E1C04"/>
<path d="M3 18V15H0V6H3V3H12V6H15V15H12V18H3ZM6 14.88H9V6.12H6V14.88ZM20.04 18V3H26.04V6H29.04V9H32.04V3H38.04V18H32.04V15H29.04V12H26.04V18H20.04ZM43.08 18V3H55.08V6H49.08V9H55.08V12H49.08V15H55.08V18H43.08ZM74.16 21V18H71.16V15H80.16V12H74.16V9H71.16V6H74.16V3H77.16V-1.43051e-06H83.16V3H86.16V6H77.16V9H83.16V12H86.16V15H83.16V18H80.16V21H74.16ZM91.2 18V3H97.2V6H103.2V3H109.2V18H103.2V12H97.2V18H91.2ZM114.24 18V3H126.24V6H120.24V9H126.24V12H120.24V15H126.24V18H114.24ZM131.28 18V3H137.28V6H143.28V3H149.28V18H143.28V12H137.28V18H131.28ZM154.32 18V3H166.32V6H160.32V9H166.32V12H160.32V15H166.32V18H154.32ZM185.4 18V6H182.4V3H194.4V6H191.4V18H185.4ZM202.44 18V15H199.44V6H202.44V3H211.44V6H214.44V15H211.44V18H202.44ZM205.44 14.88H208.44V6.12H205.44V14.88ZM230.52 18V3H242.52V6H245.52V9H242.52V15H245.52V18H239.52V15H236.52V18H230.52ZM236.52 9H239.52V6H236.52V9ZM253.56 18V15H250.56V3H256.56V15H259.56V3H265.56V15H262.56V18H253.56ZM270.6 18V3H276.6V15H282.6V18H270.6ZM287.64 18V3H299.64V6H293.64V9H299.64V12H293.64V15H299.64V18H287.64ZM318.72 18V6H315.72V3H327.72V6H324.72V18H318.72ZM332.76 18V3H338.76V9H341.76V3H347.76V18H341.76V12H338.76V18H332.76ZM352.8 18V3H364.8V6H358.8V9H364.8V12H358.8V15H364.8V18H352.8ZM369.84 18V3H375.84V6H381.84V3H387.84V18H381.84V12H375.84V18H369.84ZM403.92 18V6H406.92V3H415.92V6H418.92V18H412.92V12H409.92V18H403.92ZM409.92 9H412.92V6.12H409.92V9ZM423.96 18V3H429.96V15H435.96V18H423.96ZM441 18V3H447V15H453V18H441Z" fill="#FBE84F"/>
</svg>
